<svg xmlns="http://www.w3.org/2000/svg" viewBox="0 0 28.633 25.893">
  <defs>
    <style>
      .cls-1 {
        opacity: 0.25;
      }

      .cls-2 {
        fill: #003fa2;
      }

      .cls-3 {
        opacity: 0.3;
      }

      .cls-4 {
        fill: #fff;
      }
    </style>
  </defs>
  <g id="logo-tq-blanco" transform="translate(620.868 3933.022)">
    <g id="Group_32" data-name="Group 32" class="cls-1" transform="translate(-619.384 -3931.533)">
      <g id="Group_31" data-name="Group 31">
        <path id="Path_44" data-name="Path 44" class="cls-2" d="M2407.726,192.763a11.9,11.9,0,0,1-6,.084c-.122-.029-.056-.1-.018-.135a11.693,11.693,0,0,0,4.207-8.51,7.251,7.251,0,0,0-.668-3.194l.01.011c-.489-1-2.13-3.757-8.477-3.757h-.033c-1.4.011-2.872.088-4.389.234-.132.007-.2-.038-.122-.2a18.716,18.716,0,0,1,3.755-4.933c.092-.089.011-.187-.046-.225-.725-.489-2.243-.421-3.792.232a6.12,6.12,0,0,0-2.356,1.649,24.05,24.05,0,0,0-2.429,4.047.3.3,0,0,1-.2.176c-1.6.3-3.145.664-4.62,1.074a1.048,1.048,0,0,0-.66.466,7.71,7.71,0,0,0-.333.712c-.734,1.8-.683,3.547.086,4.073a.632.632,0,0,0,.6-.088q1.59-.8,3.319-1.528c.033-.013.083-.031.076.055a18.936,18.936,0,0,0-.51,4.242c0,6.947,4.066,8.973,8.253,8.973a10.081,10.081,0,0,0,1.068-.059l-.088-.015.088.015a11.912,11.912,0,0,0,3.9-1.146.284.284,0,0,1,.2-.021,12.332,12.332,0,0,0,8.891-.97C2408.536,193.388,2408.209,192.579,2407.726,192.763Zm-9.031-2.04a.176.176,0,0,1-.281-.035,5.438,5.438,0,0,1-.824-2.33c-.043-.367-.245-1.487-2.357-1.487a1.855,1.855,0,0,0-2.019,1.793,5.719,5.719,0,0,0,1.766,4.242c.109.115.036.175-.013.193-4.25,1.273-5.081-1.037-5.21-1.439a11.072,11.072,0,0,1-.417-3.206c0-4.119.4-9.1,7.475-9.1,1.03,0,3.938-.1,5.169,1.946,1.561,2.584-.289,6.635-3.288,9.425Z" transform="translate(-2381.026 -171.817)"/>
      </g>
    </g>
    <g id="Group_34" data-name="Group 34" class="cls-3" transform="translate(-618.498 -3930.66)">
      <g id="Group_33" data-name="Group 33">
        <path id="Path_45" data-name="Path 45" class="cls-2" d="M2399.726,201.606a7.435,7.435,0,0,1-5.111-1.658c-1.5-1.346-2.262-3.506-2.262-6.434a18.022,18.022,0,0,1,.489-4.044.859.859,0,0,0,.021-.122.94.94,0,0,0-.237-.734.913.913,0,0,0-.673-.295.971.971,0,0,0-.386.081c-1.087.459-2.167.954-3.211,1.468a4.528,4.528,0,0,1,.367-2.788q.122-.3.275-.593a.842.842,0,0,1,.167-.077c1.468-.406,2.988-.76,4.526-1.05a1.179,1.179,0,0,0,.838-.668,23.189,23.189,0,0,1,2.324-3.879,5.313,5.313,0,0,1,2-1.379,5.919,5.919,0,0,1,1.909-.475,20.706,20.706,0,0,0-2.936,4.174l-.016.032a1.009,1.009,0,0,0,.021,1.014.989.989,0,0,0,.856.455h.111c1.474-.142,2.925-.219,4.312-.23h.026c3.94,0,6.581,1.1,7.645,3.18a.649.649,0,0,0,.032.072,6.364,6.364,0,0,1,.579,2.813,10.864,10.864,0,0,1-3.921,7.861.961.961,0,0,0-.31.95.945.945,0,0,0,.708.687,12.628,12.628,0,0,0,3.058.367q.245,0,.49-.009a11.392,11.392,0,0,1-3.19.439h0a14.286,14.286,0,0,1-3.139-.367,1.211,1.211,0,0,0-.271-.031,1.149,1.149,0,0,0-.515.122,11.026,11.026,0,0,1-3.486,1.047.876.876,0,0,0-.385.038A6.3,6.3,0,0,1,2399.726,201.606Zm3.446-16.864c-3.469,0-5.878,1.163-7.161,3.458a13.425,13.425,0,0,0-1.2,6.525,11.91,11.91,0,0,0,.459,3.475,3.641,3.641,0,0,0,3.78,2.428,8.9,8.9,0,0,0,2.521-.416l.057-.02a.979.979,0,0,0,.612-.694,1.01,1.01,0,0,0-.271-.927A4.955,4.955,0,0,1,2400.44,195a.993.993,0,0,1,1.141-.986c1.4,0,1.468.535,1.482.709a6.3,6.3,0,0,0,.964,2.712,1.053,1.053,0,0,0,1.59.217l.023-.021a14.1,14.1,0,0,0,3.579-5.121,6.052,6.052,0,0,0-.135-5.4c-1.433-2.372-4.586-2.372-5.627-2.372Z" transform="translate(-2388.266 -178.96)"/>
      </g>
    </g>
    <path id="Path_46" data-name="Path 46" class="cls-2" d="M2395.546,180.583a11.885,11.885,0,0,1-6,.084c-.122-.029-.056-.1-.018-.135a11.7,11.7,0,0,0,4.207-8.51,7.247,7.247,0,0,0-.668-3.194l.01.011c-.49-1-2.13-3.757-8.477-3.757h-.033c-1.4.011-2.872.088-4.389.234-.132.007-.2-.038-.122-.2a18.711,18.711,0,0,1,3.755-4.933c.092-.089.011-.187-.047-.225-.725-.489-2.243-.421-3.792.232a6.117,6.117,0,0,0-2.356,1.649,24.088,24.088,0,0,0-2.429,4.047.306.306,0,0,1-.2.176c-1.6.3-3.145.664-4.62,1.074a1.049,1.049,0,0,0-.661.466,7.584,7.584,0,0,0-.333.712c-.734,1.8-.683,3.547.086,4.073a.632.632,0,0,0,.6-.088q1.59-.8,3.319-1.528c.033-.013.083-.031.076.055a18.936,18.936,0,0,0-.51,4.242c0,6.947,4.066,8.973,8.253,8.973a10.034,10.034,0,0,0,1.068-.059.285.285,0,0,1-.088-.015l.088.015a11.906,11.906,0,0,0,3.9-1.146.284.284,0,0,1,.2-.021,12.331,12.331,0,0,0,8.891-.97C2396.356,181.21,2396.029,180.4,2395.546,180.583Zm-9.031-2.04a.176.176,0,0,1-.281-.035,5.441,5.441,0,0,1-.824-2.33c-.043-.367-.245-1.487-2.357-1.487a1.855,1.855,0,0,0-2.018,1.793,5.719,5.719,0,0,0,1.766,4.242c.109.115.035.175-.013.193-4.25,1.273-5.082-1.037-5.21-1.439a11.064,11.064,0,0,1-.417-3.206c0-4.119.4-9.1,7.475-9.1,1.03,0,3.938-.1,5.17,1.946,1.561,2.584-.285,6.635-3.288,9.425Z" transform="translate(-2989.719 -4092.66)"/>
    <g id="Group_35" data-name="Group 35" transform="translate(-620.874 -3933.023)">
      <path id="Path_47" data-name="Path 47" class="cls-4" d="M2395.546,180.583a11.885,11.885,0,0,1-6,.084c-.122-.029-.056-.1-.018-.135a11.7,11.7,0,0,0,4.207-8.51,7.247,7.247,0,0,0-.668-3.194l.01.011c-.49-1-2.13-3.757-8.477-3.757h-.033c-1.4.011-2.872.088-4.389.234-.132.007-.2-.038-.122-.2a18.711,18.711,0,0,1,3.755-4.933c.092-.089.011-.187-.047-.225-.725-.489-2.243-.421-3.792.232a6.117,6.117,0,0,0-2.356,1.649,24.088,24.088,0,0,0-2.429,4.047.306.306,0,0,1-.2.176c-1.6.3-3.145.664-4.62,1.074a1.049,1.049,0,0,0-.661.466,7.584,7.584,0,0,0-.333.712c-.734,1.8-.683,3.547.086,4.073a.632.632,0,0,0,.6-.088q1.59-.8,3.319-1.528c.033-.013.083-.031.076.055a18.936,18.936,0,0,0-.51,4.242c0,6.947,4.066,8.973,8.253,8.973a10.034,10.034,0,0,0,1.068-.059.285.285,0,0,1-.088-.015l.088.015a11.906,11.906,0,0,0,3.9-1.146.284.284,0,0,1,.2-.021,12.331,12.331,0,0,0,8.891-.97C2396.356,181.21,2396.029,180.4,2395.546,180.583Zm-9.031-2.04a.176.176,0,0,1-.281-.035,5.441,5.441,0,0,1-.824-2.33c-.043-.367-.245-1.487-2.357-1.487a1.855,1.855,0,0,0-2.018,1.793,5.719,5.719,0,0,0,1.766,4.242c.109.115.035.175-.013.193-4.25,1.273-5.082-1.037-5.21-1.439a11.064,11.064,0,0,1-.417-3.206c0-4.119.4-9.1,7.475-9.1,1.03,0,3.938-.1,5.17,1.946,1.561,2.584-.285,6.635-3.288,9.425Z" transform="translate(-2368.845 -159.637)"/>
    </g>
  </g>
</svg>
