<svg xmlns="http://www.w3.org/2000/svg" width="31.465" height="28.237" viewBox="0 0 31.465 28.237">
  <g id="Group_8879" data-name="Group 8879" transform="translate(-10.272 -16.187)">
    <g id="Group_8878" data-name="Group 8878" transform="translate(10.272 16.187)">
      <g id="Group_8877" data-name="Group 8877" transform="translate(0 0)">
        <path id="Path_5318" data-name="Path 5318" d="M41.218,40.342a13.759,13.759,0,0,1-6.943.134c-.138-.034-.066-.116-.023-.155,3.107-2.868,4.835-6.346,4.817-9.87a8.384,8.384,0,0,0-.792-3.692l.011.012c-.566-1.149-2.487-4.333-9.829-4.3h-.038c-1.624.021-3.323.119-5.076.3-.153.009-.231-.042-.138-.233a21.6,21.6,0,0,1,4.315-5.73c.106-.1.012-.216-.054-.261-.842-.558-2.6-.474-4.388.291a7.078,7.078,0,0,0-2.716,1.922,27.831,27.831,0,0,0-2.786,4.7.354.354,0,0,1-.235.2c-1.848.36-3.634.788-5.339,1.27a1.215,1.215,0,0,0-.762.543,8.83,8.83,0,0,0-.381.826c-.839,2.09-.769,4.114.123,4.712a.728.728,0,0,0,.693-.1q1.831-.931,3.83-1.788c.038-.016.1-.035.088.063a21.91,21.91,0,0,0-.565,4.911c.041,8.036,4.757,10.356,9.6,10.331a11.607,11.607,0,0,0,1.234-.074c-.012,0-.047-.006-.1-.016l.1.016A13.78,13.78,0,0,0,30.368,43a.328.328,0,0,1,.23-.025A14.263,14.263,0,0,0,40.878,41.8C42.158,41.06,41.776,40.127,41.218,40.342Zm-10.46-2.307A.2.2,0,0,1,30.433,38a6.291,6.291,0,0,1-.968-2.691c-.051-.42-.293-1.719-2.735-1.706a2.147,2.147,0,0,0-2.324,2.087,6.616,6.616,0,0,0,2.069,4.9c.127.133.041.2-.015.224-4.908,1.5-5.885-1.17-6.036-1.633a12.807,12.807,0,0,1-.5-3.707c-.025-4.764.4-10.533,8.594-10.575,1.191-.006,4.554-.133,5.992,2.221C36.327,30.092,34.217,34.789,30.758,38.035Z" transform="translate(-10.272 -16.187)" fill="#fff"/>
      </g>
    </g>
  </g>
</svg>
