<svg xmlns="http://www.w3.org/2000/svg" xmlns:xlink="http://www.w3.org/1999/xlink" viewBox="0 0 115.33 115.33"><defs><style>.cls-1{mask:url(#mask);}.cls-2,.cls-3{mix-blend-mode:multiply;}.cls-2{fill:url(#linear-gradient);}.cls-3{fill:url(#linear-gradient-2);}.cls-4{fill:#d3d3d3;}.cls-5{fill:url(#linear-gradient-3);}.cls-6{fill:url(#linear-gradient-4);}.cls-7{mask:url(#mask-3);}.cls-8{opacity:0.7;fill:url(#linear-gradient-5);}.cls-9{fill:url(#Degradado_sin_nombre_6);}.cls-10{fill:url(#Degradado_sin_nombre_12);}.cls-11{fill:url(#Degradado_sin_nombre_10);}.cls-12{fill:url(#linear-gradient-6);}.cls-13{fill:url(#linear-gradient-7);}.cls-14{fill:url(#linear-gradient-8);}.cls-15{fill:#ffde08;}.cls-16{fill:#007bd6;}.cls-17{fill:#319c00;}.cls-18{fill:#fff;}.cls-19{filter:url(#luminosity-noclip);}</style><filter id="luminosity-noclip" x="37.69" y="-8250" width="39.96" height="32766" filterUnits="userSpaceOnUse" color-interpolation-filters="sRGB"><feFlood flood-color="#fff" result="bg"/><feBlend in="SourceGraphic" in2="bg"/></filter><mask id="mask" x="37.69" y="-8250" width="39.96" height="32766" maskUnits="userSpaceOnUse"><g class="cls-19"/></mask><linearGradient id="linear-gradient" x1="47.66" y1="-94.34" x2="47.4" y2="-81.02" gradientTransform="translate(105.77 -58.78) rotate(180) scale(1.01 1)" gradientUnits="userSpaceOnUse"><stop offset="0" stop-color="#080808"/><stop offset="1" stop-color="#bfbfbf"/></linearGradient><linearGradient id="linear-gradient-2" x1="47.66" y1="-94.34" x2="47.4" y2="-81.02" gradientTransform="translate(105.77 -58.78) rotate(180) scale(1.01 1)" gradientUnits="userSpaceOnUse"><stop offset="0"/><stop offset="1" stop-color="#fff"/></linearGradient><linearGradient id="linear-gradient-3" x1="35.91" y1="116.75" x2="67.72" y2="15.03" gradientUnits="userSpaceOnUse"><stop offset="0" stop-color="#85888a"/><stop offset="0.29" stop-color="#f1f2f4"/><stop offset="0.68" stop-color="#fff"/><stop offset="0.73" stop-color="#fafafa"/><stop offset="0.79" stop-color="#ececed"/><stop offset="0.86" stop-color="#d4d5d6"/><stop offset="0.92" stop-color="#b3b5b6"/><stop offset="0.99" stop-color="#898c8e"/><stop offset="1" stop-color="#85888a"/></linearGradient><linearGradient id="linear-gradient-4" x1="20.66" y1="47.51" x2="86.67" y2="47.51" xlink:href="#linear-gradient-3"/><mask id="mask-3" x="37.69" y="20.99" width="39.96" height="26.64" maskUnits="userSpaceOnUse"><g class="cls-1"><path class="cls-2" d="M37.69,34.31C37.69,27,46.63,21,57.67,21s20,6,20,13.32-9,13.32-20,13.32S37.69,41.67,37.69,34.31Z"/></g></mask><filter id="luminosity-noclip-3" x="37.69" y="20.99" width="39.96" height="26.64" filterUnits="userSpaceOnUse" color-interpolation-filters="sRGB"><feFlood flood-color="#fff" result="bg"/><feBlend in="SourceGraphic" in2="bg"/></filter><linearGradient id="linear-gradient-5" x1="60.58" y1="-93.09" x2="61.08" y2="-93.09" gradientTransform="translate(105.77 -58.78) rotate(180) scale(1.01 1)" gradientUnits="userSpaceOnUse"><stop offset="0" stop-color="#fff"/><stop offset="1" stop-color="#fff"/></linearGradient><radialGradient id="Degradado_sin_nombre_6" cx="57.82" cy="46.87" r="27.54" gradientUnits="userSpaceOnUse"><stop offset="0.85" stop-color="#0073ce"/><stop offset="0.88" stop-color="#0071cb" stop-opacity="0.99"/><stop offset="0.9" stop-color="#006cc1" stop-opacity="0.96"/><stop offset="0.92" stop-color="#0062b0" stop-opacity="0.91"/><stop offset="0.94" stop-color="#005598" stop-opacity="0.84"/><stop offset="0.95" stop-color="#004479" stop-opacity="0.75"/><stop offset="0.97" stop-color="#002f53" stop-opacity="0.64"/><stop offset="0.99" stop-color="#001628" stop-opacity="0.52"/><stop offset="1" stop-opacity="0.4"/></radialGradient><radialGradient id="Degradado_sin_nombre_12" cx="57.82" cy="46.87" r="27.54" xlink:href="#Degradado_sin_nombre_6"/><radialGradient id="Degradado_sin_nombre_10" cx="57.82" cy="46.87" r="27.54" gradientUnits="userSpaceOnUse"><stop offset="0.85" stop-color="#ebebeb"/><stop offset="0.87" stop-color="#e8e8e8" stop-opacity="0.99"/><stop offset="0.89" stop-color="#dedede" stop-opacity="0.97"/><stop offset="0.91" stop-color="#cdcdcd" stop-opacity="0.92"/><stop offset="0.93" stop-color="#b5b5b5" stop-opacity="0.86"/><stop offset="0.94" stop-color="#969696" stop-opacity="0.78"/><stop offset="0.96" stop-color="#707070" stop-opacity="0.69"/><stop offset="0.97" stop-color="#444" stop-opacity="0.57"/><stop offset="0.99" stop-color="#111" stop-opacity="0.44"/><stop offset="0.99" stop-opacity="0.4"/></radialGradient><linearGradient id="linear-gradient-6" x1="57.89" y1="59.72" x2="57.89" y2="75.81" gradientUnits="userSpaceOnUse"><stop offset="0.01" stop-color="#0073ce"/><stop offset="0.12" stop-color="#0475cf"/><stop offset="0.24" stop-color="#117cd1"/><stop offset="0.37" stop-color="#2788d5"/><stop offset="0.5" stop-color="#4599db"/><stop offset="0.64" stop-color="#6baee3"/><stop offset="0.77" stop-color="#9bc8ec"/><stop offset="0.9" stop-color="#d2e6f6"/><stop offset="1" stop-color="#fff"/></linearGradient><linearGradient id="linear-gradient-7" x1="57.89" y1="51.42" x2="57.89" y2="22.89" gradientUnits="userSpaceOnUse"><stop offset="0.01" stop-color="#0073ce"/><stop offset="0.11" stop-color="#127dd1"/><stop offset="0.32" stop-color="#4197db"/><stop offset="0.61" stop-color="#8dc0e9"/><stop offset="0.96" stop-color="#f4f9fd"/><stop offset="1" stop-color="#fff"/></linearGradient><linearGradient id="linear-gradient-8" x1="57.89" y1="51.42" x2="57.89" y2="22.89" gradientUnits="userSpaceOnUse"><stop offset="0.01" stop-color="#ebebeb"/><stop offset="0.91" stop-color="#fdfdfd"/><stop offset="1" stop-color="#fff"/></linearGradient></defs><title>shutterstock_1027459333 [Convertido]</title><g id="Flag_pin_icon" data-name="Flag pin icon"><path class="cls-4" d="M89.8,47.21A32.13,32.13,0,1,0,44.19,76.38l14,23.27,13-23.27A32.13,32.13,0,0,0,89.8,47.21Z"/><path class="cls-5" d="M58.17,100.86l-14.4-24a32.74,32.74,0,1,1,27.81,0Zm-.5-85.18A31.53,31.53,0,0,0,44.45,75.84l.17.07.09.16L58.13,98.44,70.71,75.91l.18-.08A31.53,31.53,0,0,0,57.67,15.68Z"/><path class="cls-6" d="M57.67,19.17A28.34,28.34,0,1,0,86,47.51,28.37,28.37,0,0,0,57.67,19.17Zm27,34.4a27.7,27.7,0,1,1,.67-6.06A28.13,28.13,0,0,1,84.69,53.57Z"/><g class="cls-7"><g class="cls-7"><path class="cls-8" d="M37.69,34.31C37.69,27,46.63,21,57.67,21s20,6,20,13.32-9,13.32-20,13.32S37.69,41.67,37.69,34.31Z"/></g></g><path class="cls-9" d="M57.82,19.33a27.55,27.55,0,0,0-26,18.4h52A27.55,27.55,0,0,0,57.82,19.33Z"/><path class="cls-10" d="M31.87,56.1a27.54,27.54,0,0,0,51.9,0Z"/><path class="cls-11" d="M85.36,46.87a27.62,27.62,0,0,0-1.56-9.14h-52a27.57,27.57,0,0,0,0,18.37h51.9A27.66,27.66,0,0,0,85.36,46.87Z"/><path class="cls-12" d="M37.88,60A25.48,25.48,0,0,0,48.79,69,22.69,22.69,0,0,0,67,69,25.59,25.59,0,0,0,77.9,60Z"/><path class="cls-13" d="M67,24.6a24.95,24.95,0,0,0-18.18,0C42.52,27.11,38,32.07,37.17,37.73H78.6C77.76,32.06,73.24,27.1,67,24.6Z"/><path class="cls-14" d="M78.6,37.73H37.17s0,.05,0,.08A13.68,13.68,0,0,0,37,39.63,9.33,9.33,0,0,0,40.18,47a17.88,17.88,0,0,0,8.61,3.72,48.71,48.71,0,0,0,9.1.75A48.64,48.64,0,0,0,67,50.67,17.87,17.87,0,0,0,75.59,47a9.33,9.33,0,0,0,3.15-7.32,12.19,12.19,0,0,0-.13-1.82S78.6,37.76,78.6,37.73Z"/><path class="cls-15" d="M54.62,54.57l-.43.88-.37-.18-.2-.12a.35.35,0,0,1-.06-.14.23.23,0,0,1,0-.16.27.27,0,0,1,.35-.13l-.06-.12a1.78,1.78,0,0,1,0-.2l0-.22.21.1,0,.26a1.06,1.06,0,0,0,0,.18l0,.06.09,0,0,0,.18-.37ZM54.2,55l-.14-.06a.42.42,0,0,0-.16-.07h-.07a.1.1,0,0,0,0,.06.12.12,0,0,0,0,.08.12.12,0,0,0,0,.07l.13.07.14.07Z"/><path d="M53.79,54.18l0,.23a.69.69,0,0,0,0,.2s0,0,0,.06a.32.32,0,0,0-.17,0,.31.31,0,0,0-.16.16.47.47,0,0,0,0,.17.26.26,0,0,0,.07.16.63.63,0,0,0,.21.13l.41.2.47-1-.25-.12-.18.37h0l-.08,0a.08.08,0,0,1,0,0l0-.17,0-.27-.3-.15Zm.18.52,0-.11a1.52,1.52,0,0,1,0-.19s0-.09,0-.16l.14.07s0,.23,0,.23l0,.19a.35.35,0,0,0,0,.08l.09.06.07,0s.16-.31.18-.37l.11,0-.39.82-.35-.16-.18-.12a.16.16,0,0,1,0-.11v0a.43.43,0,0,1,0-.11.23.23,0,0,1,.12-.12.25.25,0,0,1,.19,0l.11,0Z"/><path d="M53.81,54.84a.13.13,0,0,0-.06.07.15.15,0,0,0,0,.11.13.13,0,0,0,.07.09l.13.07.18.09.14-.3-.17-.08a.51.51,0,0,0-.18-.07A.15.15,0,0,0,53.81,54.84Zm.16.27-.13-.06a.05.05,0,0,1,0,0h0s0,0,0,0,0,0,0,0,0,0,0,0l.16.06.1,0-.08.16Z"/><path class="cls-15" d="M53.66,54.07l-.54.83-.61-.41.09-.14.45.3.12-.18-.42-.28.09-.14.42.28.14-.23-.46-.3.1-.14Z"/><path d="M53,53.64l-.12.17.46.3-.1.16L52.83,54l-.13.2.41.28L53,54.6l-.44-.3-.13.21.67.44.59-.89L53,53.61Zm0,.07.56.38s-.46.7-.5.75l-.55-.36,0-.07.45.29.16-.24-.41-.28,0-.07.41.27.19-.29-.46-.3Z"/><path class="cls-15" d="M52.83,53.51l-.64.74L52,54a1.46,1.46,0,0,1-.17-.16.34.34,0,0,1-.05-.17.31.31,0,0,1,.09-.18.35.35,0,0,1,.12-.1.3.3,0,0,1,.13,0,.23.23,0,0,1,.11,0,.92.92,0,0,1,.16.12l.1.09.24-.28Zm-.68.49.18-.22-.08-.07a.5.5,0,0,0-.13-.09H52a.13.13,0,0,0-.07,0,.16.16,0,0,0,0,.09.11.11,0,0,0,0,.08.58.58,0,0,0,.11.1Z"/><path d="M52.65,53.35l-.21.25-.07-.06-.18-.13a.21.21,0,0,0-.12,0,.24.24,0,0,0-.14,0,.33.33,0,0,0-.14.1.32.32,0,0,0-.09.21.26.26,0,0,0,0,.19,1.27,1.27,0,0,0,.17.17l.27.24.7-.81-.21-.18Zm-.18.33.22-.25.09.08-.59.69L52,54a.77.77,0,0,1-.16-.15.2.2,0,0,1,0-.13v0a.34.34,0,0,1,.08-.16.24.24,0,0,1,.1-.08l.11,0,.1,0a.92.92,0,0,1,.16.12l.12.11Z"/><path d="M52,53.58l-.09.06a.17.17,0,0,0,0,.22l.11.1.1.09.24-.27-.12-.1a.51.51,0,0,0-.14-.09A.12.12,0,0,0,52,53.58Zm.07.32-.1-.09a.14.14,0,0,1,0-.06h0a.11.11,0,0,1,0-.06l0,0h.06l.11.08.06,0-.14.15Z"/><path class="cls-15" d="M51.35,53.49l-.13-.15.39-.35a.62.62,0,0,0,.12-.12.11.11,0,0,0,0-.11.21.21,0,0,0,0-.12.2.2,0,0,0-.11-.07.16.16,0,0,0-.1,0l-.13.11-.41.36-.13-.15.38-.34.2-.16.13,0a.35.35,0,0,1,.14,0,.4.4,0,0,1,.15.12.69.69,0,0,1,.12.18.39.39,0,0,1,0,.15.36.36,0,0,1,0,.11l-.18.18Z"/><path d="M51.54,52.33a.28.28,0,0,0-.15,0l-.2.16-.42.37.19.2.43-.38.13-.1a.08.08,0,0,1,.07,0,.12.12,0,0,1,.09.06.19.19,0,0,1,0,.1.13.13,0,0,1,0,.08l-.11.11-.43.38.18.2.43-.37L52,53a.39.39,0,0,0,0-.13.47.47,0,0,0,0-.16.53.53,0,0,0-.12-.19.57.57,0,0,0-.16-.13A.32.32,0,0,0,51.54,52.33Zm-.3.26a.84.84,0,0,1,.19-.15l.12,0s.07,0,.11,0a.5.5,0,0,1,.14.12.37.37,0,0,1,.11.17.25.25,0,0,1,0,.08v0a.18.18,0,0,1,0,.1.88.88,0,0,1-.17.17l-.36.33-.08-.1.37-.32a.62.62,0,0,0,.12-.12.19.19,0,0,0,0-.12v0a.21.21,0,0,0-.07-.15.26.26,0,0,0-.13-.08.16.16,0,0,0-.12,0l-.14.11L51,53l-.08-.1Z"/><path class="cls-15" d="M50.56,52.56l-.22-.33-.09-.15a.43.43,0,0,1,0-.11.23.23,0,0,1,0-.11.32.32,0,0,1,.08-.09l.12,0a.28.28,0,0,1,.13,0,.22.22,0,0,1,0-.16.26.26,0,0,1,.1-.13.25.25,0,0,1,.12,0,.28.28,0,0,1,.13,0,.34.34,0,0,1,.12.09l.14.19.18.28Zm0-.26.19-.12-.08-.11L50.62,52a.15.15,0,0,0-.07-.05.11.11,0,0,0-.08,0,.13.13,0,0,0,0,.06.11.11,0,0,0,0,.08l.09.15Zm.32-.22.22-.14-.1-.15L51,51.68a.08.08,0,0,0-.07,0,.1.1,0,0,0-.09,0l0,.06a.11.11,0,0,0,0,.08.76.76,0,0,0,.08.15Z"/><path d="M50.81,51.4a.44.44,0,0,0-.15.05.36.36,0,0,0-.11.14.28.28,0,0,0,0,.09v0h-.08a.28.28,0,0,0-.15,0,.33.33,0,0,0-.09.11.27.27,0,0,0,0,.12.35.35,0,0,0,0,.13l.09.15.24.36.88-.59-.2-.31-.14-.2a.28.28,0,0,0-.13-.09A.26.26,0,0,0,50.81,51.4Zm-.18.36a.17.17,0,0,1,0-.14.21.21,0,0,1,.08-.11l.11,0a.2.2,0,0,1,.11,0,.3.3,0,0,1,.1.07l.13.19.17.25-.76.5-.2-.29-.08-.15a.29.29,0,0,1,0-.09h0a.29.29,0,0,1,0-.09.23.23,0,0,1,.07-.07.14.14,0,0,1,.1,0,.2.2,0,0,1,.11,0l.09.06Z"/><path d="M50.45,51.89a.13.13,0,0,0-.07.08.15.15,0,0,0,0,.11l.09.15.09.12.25-.16-.09-.14-.09-.13a.24.24,0,0,0-.09-.06A.14.14,0,0,0,50.45,51.89Zm.11.3-.09-.14s0,0,0,0h0a.05.05,0,0,1,0,0h0a.05.05,0,0,1,.05,0l.08.12,0,.07-.12.09Z"/><path d="M50.77,51.63a.12.12,0,0,0-.06.08.11.11,0,0,0,0,.1.72.72,0,0,0,.09.16l.11.17.29-.19-.13-.19L51,51.65a.14.14,0,0,0-.1,0A.13.13,0,0,0,50.77,51.63Zm.09.3c-.07-.09-.08-.13-.08-.14a0,0,0,0,1,0-.06l0,0,.06,0,.05,0,.08.11.08.12-.16.1Z"/><path class="cls-15" d="M50.8,51.09l-.88.44-.08-.18.72-.36-.22-.44.15-.08Z"/><path d="M50.48,50.44l-.19.09.22.44-.73.36.13.25.94-.47-.34-.69Zm0,.08c0,.06.24.5.27.56l-.81.4,0-.11.72-.36s-.19-.39-.21-.45Z"/><path class="cls-15" d="M50.42,50.26l-.92.36-.08-.19.92-.35Z"/><path d="M50.33,50l-1,.37.1.26,1-.38-.1-.26Zm0,.09a.49.49,0,0,1,0,.11l-.84.33a1.17,1.17,0,0,0-.05-.11Z"/><path class="cls-15" d="M49.72,49.31v-.2a.46.46,0,0,1,.27.08.42.42,0,0,1,.15.23.43.43,0,0,1,0,.35.57.57,0,0,1-.31.22.62.62,0,0,1-.41,0,.47.47,0,0,1-.22-.29.41.41,0,0,1,0-.31.33.33,0,0,1,.14-.15l.1.18a.21.21,0,0,0-.09.1.17.17,0,0,0,0,.14.23.23,0,0,0,.12.16.42.42,0,0,0,.27,0,.38.38,0,0,0,.23-.13.21.21,0,0,0,0-.19.2.2,0,0,0-.08-.12A.3.3,0,0,0,49.72,49.31Z"/><path d="M49.73,49.07h0v.28h0a.33.33,0,0,1,.15,0,.2.2,0,0,1,.07.1.16.16,0,0,1,0,.15.35.35,0,0,1-.21.13.38.38,0,0,1-.24,0,.15.15,0,0,1-.1-.12.13.13,0,0,1,0-.12.23.23,0,0,1,.08-.09h0l-.13-.25,0,0a.49.49,0,0,0-.16.16.44.44,0,0,0,0,.34.45.45,0,0,0,.24.31.56.56,0,0,0,.43,0,.54.54,0,0,0,.34-.24.43.43,0,0,0,0-.37.41.41,0,0,0-.16-.25A.44.44,0,0,0,49.73,49.07Zm0,.08a.48.48,0,0,1,.21.07.35.35,0,0,1,.13.21.5.5,0,0,1,0,.12.39.39,0,0,1-.06.2.52.52,0,0,1-.29.2.49.49,0,0,1-.38,0,.36.36,0,0,1-.2-.26.5.5,0,0,1,0-.12.29.29,0,0,1,0-.16.35.35,0,0,1,.1-.11l.06.11a.39.39,0,0,0-.08.1.29.29,0,0,0,0,.09.22.22,0,0,0,0,.08.23.23,0,0,0,.15.17.47.47,0,0,0,.29,0,.52.52,0,0,0,.26-.15.28.28,0,0,0,0-.15.17.17,0,0,0,0-.07.24.24,0,0,0-.1-.14.25.25,0,0,0-.16,0S49.77,49.19,49.77,49.15Z"/><path class="cls-15" d="M49.85,47.89l0,.22-.21.11,0,.39.24.06,0,.2-1-.24,0-.21Zm-.34.42-.34.18.38.09Z"/><path d="M49.83,47.86l-.95.54,0,.26,1.11.26,0-.29-.23-.05s0-.29,0-.33l.21-.12,0-.3Zm0,.09c0,.06,0,.11,0,.14l-.21.11.06.45.23.05a1,1,0,0,0,0,.12L49,48.6a1,1,0,0,1,0-.16Z"/><path d="M49.49,48.28l-.43.23.53.12-.05-.38Zm0,.09a.88.88,0,0,1,0,.16l-.22-.05Z"/><path class="cls-15" d="M48.85,47.23l0-.37a1.64,1.64,0,0,1,0-.18.31.31,0,0,1,.1-.15.45.45,0,0,1,.17-.08.55.55,0,0,1,.23,0,.65.65,0,0,1,.21,0,.52.52,0,0,1,.17.12.37.37,0,0,1,.07.14.92.92,0,0,1,0,.18l0,.37ZM49,47l.65,0V46.8a.2.2,0,0,0,0-.08l-.09-.06-.18,0H49.2a.33.33,0,0,0-.1.06.22.22,0,0,0-.05.08A1.59,1.59,0,0,0,49,47Z"/><path d="M49.16,46.41a.51.51,0,0,0-.18.09.42.42,0,0,0-.11.16.77.77,0,0,0,0,.2l0,.4,1.06.06,0-.41a.56.56,0,0,0,0-.19.3.3,0,0,0-.08-.16.41.41,0,0,0-.18-.12.65.65,0,0,0-.22,0A.6.6,0,0,0,49.16,46.41Zm-.25.45a.65.65,0,0,1,0-.17.22.22,0,0,1,.09-.13.35.35,0,0,1,.15-.07.48.48,0,0,1,.22,0,.53.53,0,0,1,.19,0,.37.37,0,0,1,.16.1.81.81,0,0,1,.06.13.37.37,0,0,1,0,.11v.06s0,.27,0,.33l-.91-.05C48.9,47.13,48.91,46.86,48.91,46.86Z"/><path d="M49.19,46.61a.2.2,0,0,0-.11.06.21.21,0,0,0-.06.1.59.59,0,0,0,0,.17v.13l.73,0V46.8a.18.18,0,0,0,0-.1.23.23,0,0,0-.11-.07.47.47,0,0,0-.19,0A.38.38,0,0,0,49.19,46.61Zm-.12.34a.52.52,0,0,1,0-.15.2.2,0,0,1,0-.08l.08,0h.17l.16,0a.12.12,0,0,1,.08,0,.33.33,0,0,1,0,.06v.11a.59.59,0,0,1,0,.11l-.57,0Z"/><path class="cls-15" d="M49.92,46.2,49,46l.14-.72.16,0-.1.52.22,0,.09-.48.16,0-.09.49.26,0,.11-.54.16,0Z"/><path d="M49.05,45.29l-.14.76,1,.2.16-.81-.24,0-.11.54-.19,0c0-.07.1-.49.1-.49l-.24,0-.09.49-.14,0,.1-.52-.24,0Zm.07.05.09,0c0,.07-.1.52-.1.52l.29.06s.08-.42.09-.49l.09,0-.09.49.33.06s.1-.47.11-.54l.09,0c0,.06-.12.59-.13.66L49,46C49,45.92,49.11,45.41,49.12,45.34Z"/><path class="cls-15" d="M50.27,44.77l-.92-.36.27-.68.15.06-.19.49.2.08.18-.45.16.06-.18.46.25.1.2-.52.15.06Z"/><path d="M49.58,43.72l-.28.71,1,.39.3-.77L50.37,44l-.21.52L50,44.41c0-.07.18-.47.18-.47l-.23-.08-.18.46-.13-.06.19-.49-.22-.09Zm.06.06.09,0c0,.06-.2.5-.2.5l.27.1L50,44l.08,0-.18.46.32.12.2-.51.08,0-.24.62-.85-.33Z"/><path class="cls-15" d="M50.66,43.84l-.86-.47.1-.17.71.39.24-.44.14.08Z"/><path d="M50.81,43.13l-.22.4-.71-.38-.13.24.92.5.37-.67-.21-.12Zm-.17.48.22-.41.08,0-.3.54-.79-.43.06-.11.71.39Z"/><path class="cls-15" d="M51.09,42.51l.1-.16a.24.24,0,0,0,.16,0,.18.18,0,0,0,.12-.08.24.24,0,0,0,.06-.14.13.13,0,0,0,0-.1l-.06,0-.08,0-.13.1a.64.64,0,0,1-.22.11.26.26,0,0,1-.21-.05.2.2,0,0,1-.08-.12.22.22,0,0,1,0-.16.53.53,0,0,1,.33-.34.25.25,0,0,1,.23.06l-.12.16a.18.18,0,0,0-.12,0,.24.24,0,0,0-.1.08.22.22,0,0,0-.06.13.07.07,0,0,0,0,.06.07.07,0,0,0,.06,0,.54.54,0,0,0,.17-.1.71.71,0,0,1,.19-.13.26.26,0,0,1,.15,0,.27.27,0,0,1,.14.07.26.26,0,0,1,.1.13.28.28,0,0,1,0,.18.54.54,0,0,1-.11.19.47.47,0,0,1-.24.17A.39.39,0,0,1,51.09,42.51Z"/><path d="M51,41.57a.51.51,0,0,0-.26.18.58.58,0,0,0-.1.19.28.28,0,0,0,0,.18.33.33,0,0,0,.1.14.34.34,0,0,0,.24.06.56.56,0,0,0,.23-.12l.13-.1.06,0h0a.15.15,0,0,1,0,.07.24.24,0,0,1,0,.12.23.23,0,0,1-.11.07l-.13,0,0,0-.15.22,0,0a.39.39,0,0,0,.3.07.42.42,0,0,0,.27-.18.62.62,0,0,0,.12-.2.27.27,0,0,0,0-.2.31.31,0,0,0-.1-.15.33.33,0,0,0-.17-.08.3.3,0,0,0-.16,0,.75.75,0,0,0-.2.12.5.5,0,0,1-.15.1h0a0,0,0,0,1,0,0A.21.21,0,0,1,51,41.9l.08-.06a.13.13,0,0,1,.1,0l0,0,.16-.22,0,0A.34.34,0,0,0,51,41.57Zm-.21.63a.16.16,0,0,1-.07-.11.15.15,0,0,1,0-.13.4.4,0,0,1,.08-.16.36.36,0,0,1,.22-.15.26.26,0,0,1,.17,0l-.08.11a.15.15,0,0,0-.11,0,.22.22,0,0,0-.13.09.34.34,0,0,0-.07.15.12.12,0,0,0,.05.09.1.1,0,0,0,.09,0s.07,0,.18-.1a.93.93,0,0,1,.19-.12.17.17,0,0,1,.12,0,.19.19,0,0,1,.13.06.2.2,0,0,1,.08.12.19.19,0,0,1,0,.15.44.44,0,0,1-.1.17.4.4,0,0,1-.22.16.39.39,0,0,1-.21,0,.43.43,0,0,1,.07-.1.26.26,0,0,0,.15,0,.22.22,0,0,0,.14-.1.23.23,0,0,0,.07-.16.16.16,0,0,0-.06-.13.11.11,0,0,0-.08,0,.26.26,0,0,0-.1,0l-.13.1a.45.45,0,0,1-.2.1A.19.19,0,0,1,50.82,42.2Z"/><path class="cls-15" d="M52.66,41.29l-.16.15-.22-.11-.28.28.09.21-.15.15-.4-1,.15-.14Zm-.54,0-.35-.17.16.35Z"/><path d="M51.66,40.82l-.17.16L51.92,42l.22-.21s-.08-.18-.1-.21l.25-.24.22.1.21-.2-1-.48Zm0,.07.89.41-.1.09-.22-.1L52,41.6s.08.18.09.22L52,41.9c0-.09-.35-.86-.37-.9Z"/><path d="M51.74,41.1l.17.41.28-.26-.5-.24Zm.11.07.21.1-.12.11Z"/><path class="cls-15" d="M52.82,41.17l-.58-.79.16-.12.48.66.4-.29.1.13Z"/><path d="M52.38,40.23l-.19.14.62.85.62-.45-.14-.2-.4.3-.48-.66Zm0,.09.48.65.4-.29,0,.07-.5.37-.53-.73Z"/><path class="cls-15" d="M53.7,40.57l-.79-.68.19-.11.57.51-.15-.75.19-.11.18,1Z"/><path d="M53.69,39.4l-.21.12s.1.5.13.67l-.51-.46-.26.15.86.74.23-.14-.2-1.11Zm0,.09c0,.1.16.91.17.95l-.14.08L53,39.89l.12-.06.64.56-.17-.83Z"/><path class="cls-15" d="M55.09,39.91l-.2.08-.17-.17-.36.15v.24l-.19.08,0-1,.19-.09Zm-.49-.22-.27-.28,0,.39Z"/><path d="M54.33,39.12l-.22.09,0,1.14.27-.11s0-.2,0-.24l.32-.14.16.18.28-.12-.81-.81Zm0,.08s.62.62.69.7L54.9,40l-.17-.18-.41.18v.24l-.11.05c0-.1,0-.93,0-1Z"/><path d="M54.3,39.41l0,.44.35-.14-.38-.4Zm.08.1.16.17-.15.06C54.39,39.68,54.38,39.6,54.38,39.51Z"/><path class="cls-15" d="M55,38.9l.35-.09a.54.54,0,0,1,.18,0,.48.48,0,0,1,.17,0,.57.57,0,0,1,.14.13,1.65,1.65,0,0,1,.09.22.53.53,0,0,1,0,.21.42.42,0,0,1,0,.2.65.65,0,0,1-.12.11l-.16.06-.36.1Zm.23.11.17.63.15,0,.11,0,.07-.06a.27.27,0,0,0,0-.11.59.59,0,0,0,0-.17.73.73,0,0,0-.07-.17A.2.2,0,0,0,55.6,39l-.1,0-.16,0Z"/><path d="M55.36,38.77l-.39.1.28,1,.4-.11a.54.54,0,0,0,.17-.07.4.4,0,0,0,.13-.13.65.65,0,0,0,.06-.21.61.61,0,0,0,0-.22.69.69,0,0,0-.09-.23.4.4,0,0,0-.15-.14.37.37,0,0,0-.18,0Zm0,.07.17,0a.25.25,0,0,1,.15,0,.25.25,0,0,1,.12.11.67.67,0,0,1,.09.21.52.52,0,0,1,0,.17v0a.35.35,0,0,1,0,.18.22.22,0,0,1-.1.09.42.42,0,0,1-.15.07l-.33.08c0-.06-.22-.81-.23-.87Z"/><path d="M55.5,38.91l-.17,0-.12,0,.19.71.18,0,.12,0a.27.27,0,0,0,.08-.07.23.23,0,0,0,0-.13.81.81,0,0,0,0-.19.54.54,0,0,0-.07-.17.26.26,0,0,0-.09-.09Zm-.15.11.15,0a.11.11,0,0,1,.08,0,.13.13,0,0,1,.07.06.77.77,0,0,1,.06.15.61.61,0,0,1,0,.16h0a.22.22,0,0,1,0,.09l-.06.05-.1,0-.11,0c0-.06-.13-.49-.15-.55Z"/><path class="cls-15" d="M56.23,39.11a.55.55,0,0,1,0-.26.61.61,0,0,1,.07-.14.6.6,0,0,1,.12-.11.65.65,0,0,1,.21-.06.45.45,0,0,1,.36.09.62.62,0,0,1,.09.74.51.51,0,0,1-.69.09A.47.47,0,0,1,56.23,39.11Zm.2,0a.34.34,0,0,0,.11.24.23.23,0,0,0,.2.06.22.22,0,0,0,.18-.11A.35.35,0,0,0,57,39a.38.38,0,0,0-.1-.24.26.26,0,0,0-.21-.06.25.25,0,0,0-.19.11A.4.4,0,0,0,56.43,39.08Z"/><path d="M56.63,38.5a.52.52,0,0,0-.22.07.69.69,0,0,0-.13.11.51.51,0,0,0-.1.33.34.34,0,0,0,0,.1.54.54,0,0,0,.19.38.5.5,0,0,0,.39.1.53.53,0,0,0,.35-.19.58.58,0,0,0,.09-.42A.54.54,0,0,0,57,38.6.5.5,0,0,0,56.63,38.5Zm-.21.93a.52.52,0,0,1-.16-.33h0a.62.62,0,0,1,0-.24.28.28,0,0,1,.07-.13.28.28,0,0,1,.1-.09.53.53,0,0,1,.19-.06.4.4,0,0,1,.33.08.48.48,0,0,1,.17.33.51.51,0,0,1-.08.36.41.41,0,0,1-.3.16A.43.43,0,0,1,56.42,39.43Zm-.23-.32Z"/><path d="M56.66,38.67a.29.29,0,0,0-.22.12.44.44,0,0,0,0,.29h0a.43.43,0,0,0,.12.27.3.3,0,0,0,.24.07.27.27,0,0,0,.21-.13.49.49,0,0,0-.07-.55A.27.27,0,0,0,56.66,38.67Zm-.2.33a.34.34,0,0,1,0-.16.18.18,0,0,1,.16-.09.22.22,0,0,1,.18,0,.34.34,0,0,1,.09.22.34.34,0,0,1,0,.24.21.21,0,0,1-.15.09.23.23,0,0,1-.18-.05.32.32,0,0,1-.09-.22A.17.17,0,0,1,56.46,39Z"/><path class="cls-15" d="M57.48,39.47l0-1h.42a1,1,0,0,1,.23,0,.23.23,0,0,1,.11.09.29.29,0,0,1,0,.16.27.27,0,0,1-.27.27.31.31,0,0,1,.11.08s.06.09.11.16l.11.2h-.23L58,39.27a1,1,0,0,0-.11-.15.07.07,0,0,0-.05,0l-.1,0h0v.41Zm.21-.57H58a.1.1,0,0,0,0,0,.08.08,0,0,0,0-.07s0-.06,0-.08a.1.1,0,0,0-.07,0h-.31Z"/><path d="M57.46,38.48l0,1h.27s0-.35,0-.41h.09l0,0,.09.14.15.23h.33l-.15-.26-.11-.16-.05,0a.37.37,0,0,0,.14-.07.39.39,0,0,0,.08-.21h0a.34.34,0,0,0-.05-.17.24.24,0,0,0-.13-.11.7.7,0,0,0-.24,0h-.46Zm.08,0h.38a.51.51,0,0,1,.21,0,.25.25,0,0,1,.1.08.28.28,0,0,1,0,.13h0a.2.2,0,0,1-.06.15A.27.27,0,0,1,58,39h-.11l.09.06a.39.39,0,0,1,.1.08.93.93,0,0,1,.1.15l.09.14h-.15l-.13-.2-.11-.16a.18.18,0,0,0-.07-.05h-.19s0,.35,0,.41h-.12C57.52,39.36,57.53,38.59,57.54,38.52Z"/><path d="M57.66,38.65v.29H58a.13.13,0,0,0,.07-.06.14.14,0,0,0,0-.09.2.2,0,0,0,0-.11.16.16,0,0,0-.1,0h-.34Zm.07,0H58l0,0a.07.07,0,0,1,0,.05h0a.11.11,0,0,1,0,.06l0,0h-.27Z"/><path class="cls-15" d="M59,39.58l.21-1,.72.16,0,.16-.52-.12,0,.22.48.1,0,.17-.48-.11-.06.26.54.12,0,.16Z"/><path d="M59.2,38.61l-.22,1,.8.18.06-.24-.54-.12,0-.18.48.1,0-.24-.48-.1,0-.14.52.11.05-.23-.78-.18Zm.06,0,.64.14a.24.24,0,0,1,0,.09l-.52-.11-.06.29.48.1a.29.29,0,0,1,0,.09l-.48-.11-.07.34.53.12s0,0,0,.09l-.66-.15C59.08,39.49,59.25,38.73,59.26,38.66Z"/><path class="cls-15" d="M60,39.81l.34-.92.18.06.16.76.22-.62.17.06-.33.93L60.55,40l-.15-.74-.22.61Z"/><path d="M60.3,38.87l-.35,1,.25.08.19-.51c0,.18.13.63.13.63l.24.09.36-1L60.88,39s-.14.37-.19.53l-.14-.65-.23-.08Zm.06.07.13,0,.18.87.25-.71.11,0c0,.06-.29.79-.32.85L60.58,40l-.17-.85s-.23.63-.26.7l-.1,0C60.08,39.73,60.34,39,60.36,38.94Z"/><path class="cls-15" d="M61.43,40.42l.5-.84.17.1-.41.69.42.26-.08.14Z"/><path d="M61.9,39.56l-.52.87.66.39.13-.21-.43-.25.41-.7-.23-.14Zm0,.07.11.06-.41.7.42.25s0,0,0,.08l-.53-.32Z"/><path class="cls-15" d="M62.92,41.44l-.17-.13.07-.23-.31-.24-.2.13-.17-.13.91-.54.17.12Zm-.05-.53.12-.37-.33.21Z"/><path d="M63,40.26l-1,.57.24.18.2-.12.27.21s-.07.23-.07.23l.23.18.32-1.1-.21-.16Zm0,.08.12.1-.27.94-.1-.08.07-.23-.36-.28-.2.13-.1-.08Z"/><path d="M63,40.51l-.38.23.3.24.17-.53Zm0,.12c0,.08-.05.16-.07.22l-.12-.1Z"/><path class="cls-15" d="M63.94,42.54l-.14-.16.11-.21-.25-.3-.23.08-.14-.15,1-.36.14.16ZM64,42l.18-.34-.36.14Z"/><path d="M64.28,41.4l-1.05.38.19.22.22-.09.23.26-.11.21.19.23.52-1-.17-.2Zm0,.08.1.12-.44.87-.09-.1.11-.21-.29-.34-.23.09-.08-.1Z"/><path d="M64.17,41.63l-.41.16.24.29.27-.49Zm-.07.11-.11.2-.1-.12Z"/><path class="cls-15" d="M64.06,42.69l.83-.53.16.25-.47.52.66-.22.16.26-.83.53-.1-.16.65-.42-.76.26-.1-.17.55-.58-.65.42Z"/><path d="M64.87,42.13l-.87.55.14.22.43-.27-.36.38.14.21.49-.16-.42.27.14.22.89-.57-.19-.31-.56.18.4-.43-.2-.31Zm0,.09.12.19-.55.6.77-.25.13.19-.77.49-.06-.09.62-.4,0-.06-.73.24L64.31,43l.53-.56,0-.06-.62.4-.06-.09Z"/><path class="cls-15" d="M64.7,43.75l.9-.4.3.66-.15.07-.22-.48-.2.09.2.45-.15.06-.2-.45-.25.12.23.5-.15.07Z"/><path d="M65.58,43.31l-.93.42.34.76.22-.1L65,43.88a1.42,1.42,0,0,0,.18-.08l.2.46.22-.1-.2-.46.13-.05.22.48L66,44l-.33-.73Zm0,.09c0,.06.24.53.27.59l-.08,0-.22-.49-.27.13.2.45-.08,0-.2-.45-.32.15.23.5-.08,0c0-.05-.25-.55-.28-.61Z"/><path class="cls-15" d="M65.1,44.67l.94-.28.12.4a.58.58,0,0,1,0,.23.21.21,0,0,1,0,.13.34.34,0,0,1-.14.09.25.25,0,0,1-.19,0,.34.34,0,0,1-.15-.16.5.5,0,0,1,0,.13s-.06.08-.13.15l-.14.17-.07-.23.16-.2.11-.14a.19.19,0,0,0,0-.07.24.24,0,0,0,0-.1v0l-.39.13Zm.6,0,0,.14a.6.6,0,0,0,.07.17.1.1,0,0,0,0,0,.11.11,0,0,0,.08,0A.18.18,0,0,0,66,45a.11.11,0,0,0,0-.08.7.7,0,0,0,0-.14l0-.15Z"/><path d="M66,44.35l-1,.3.08.26.39-.12h0a.44.44,0,0,1,0,.09h0a.09.09,0,0,1,0,0l-.11.14-.18.22.1.31.19-.22a1,1,0,0,0,.13-.16s0,0,0-.07a.31.31,0,0,0,.12.11.28.28,0,0,0,.22,0,.37.37,0,0,0,.16-.1.25.25,0,0,0,.06-.16.59.59,0,0,0,0-.24l-.13-.44Zm0,.09c0,.06.11.36.11.36a1.15,1.15,0,0,1,0,.2h0a.26.26,0,0,1,0,.12.24.24,0,0,1-.12.07.25.25,0,0,1-.17,0,.31.31,0,0,1-.12-.15l0-.1,0,.11a.33.33,0,0,1,0,.12l-.11.15-.11.11s0-.12,0-.14l.15-.18.11-.15a.16.16,0,0,0,0-.09h0a.65.65,0,0,0,0-.11l0-.07-.4.12,0-.12Z"/><path d="M65.93,44.59l-.28.08.06.18c0,.13.05.16.07.18a.13.13,0,0,0,.07.06H66A.15.15,0,0,0,66,45a.14.14,0,0,0,0-.11l0-.15L66,44.58Zm0,.08s0,.12,0,.12l0,.13v0s0,0,0,0l0,0a.06.06,0,0,1-.06,0l0,0a.7.7,0,0,1-.06-.16l0-.1Z"/><path class="cls-15" d="M65.38,45.71l1-.19,0,.19-1,.2Z"/><path d="M66.34,45.48l-1,.2,0,.27,1-.21-.05-.27Zm0,.08a.6.6,0,0,1,0,.12l-.89.18,0-.12Z"/><path class="cls-15" d="M65.9,46.77l0,.2a.43.43,0,0,1-.26-.13.44.44,0,0,1-.1-.25.42.42,0,0,1,.1-.33A.47.47,0,0,1,66,46.1a.54.54,0,0,1,.39.08.48.48,0,0,1,.17.32.47.47,0,0,1-.08.31.42.42,0,0,1-.17.11l-.07-.19a.2.2,0,0,0,.12-.08.32.32,0,0,0,0-.14.23.23,0,0,0-.1-.17.4.4,0,0,0-.26,0,.42.42,0,0,0-.26.09.2.2,0,0,0-.06.18.23.23,0,0,0,.06.13A.29.29,0,0,0,65.9,46.77Z"/><path d="M66,46.06a.54.54,0,0,0-.38.17.5.5,0,0,0-.11.36.43.43,0,0,0,.12.28.5.5,0,0,0,.27.14h0l.06-.27h0a.38.38,0,0,1-.14,0,.16.16,0,0,1-.05-.11.17.17,0,0,1,.05-.15.34.34,0,0,1,.24-.08.39.39,0,0,1,.23,0,.2.2,0,0,1,.08.14.21.21,0,0,1,0,.12.22.22,0,0,1-.09.07h0l.1.27,0,0a.4.4,0,0,0,.19-.13.46.46,0,0,0,.09-.33.51.51,0,0,0-.19-.35A.55.55,0,0,0,66,46.06Zm-.32.76a.43.43,0,0,1-.09-.23v-.05a.39.39,0,0,1,.09-.26.56.56,0,0,1,.33-.15.6.6,0,0,1,.37.08.4.4,0,0,1,.15.3v.05a.32.32,0,0,1-.07.22.27.27,0,0,1-.12.09l0-.12a.25.25,0,0,0,.1-.08.28.28,0,0,0,0-.13,0,0,0,0,0,0,0,.23.23,0,0,0-.11-.2.39.39,0,0,0-.28-.05.43.43,0,0,0-.28.1.29.29,0,0,0-.08.19v0a.22.22,0,0,0,.08.15.42.42,0,0,0,.15.07s0,.08,0,.12A.42.42,0,0,1,65.63,46.82Z"/><path class="cls-15" d="M65.53,48.14v-.21l.22-.08,0-.39-.22-.09v-.22l1,.43v.21Zm.4-.35.37-.12-.36-.15Z"/><path d="M65.53,47.15v.24l.22.09s0,.3,0,.34l-.23.08v.3l1.07-.38,0-.27-1-.45Zm.07.06.9.39a.92.92,0,0,0,0,.16l-.92.33V48l.23-.07,0-.45-.22-.09Z"/><path d="M65.9,47.52v.33l.52-.17-.5-.21Zm.08.06.21.09-.22.07Z"/><path class="cls-15" d="M65.64,49.45l-.1.17a.39.39,0,0,1-.2-.2.41.41,0,0,1,0-.27.45.45,0,0,1,.21-.29.48.48,0,0,1,.38,0,.46.46,0,0,1,.34.21.47.47,0,0,1-.11.62.39.39,0,0,1-.2.05v-.2a.18.18,0,0,0,.13,0,.2.2,0,0,0,.08-.12.27.27,0,0,0,0-.2.45.45,0,0,0-.23-.12.44.44,0,0,0-.28,0,.21.21,0,0,0-.11.15.25.25,0,0,0,0,.15A.43.43,0,0,0,65.64,49.45Z"/><path d="M65.51,48.83a.44.44,0,0,0-.22.31.41.41,0,0,0,0,.29.47.47,0,0,0,.22.22l0,0,.14-.24,0,0a.25.25,0,0,1-.12-.1.16.16,0,0,1,0-.12.14.14,0,0,1,.09-.12.35.35,0,0,1,.25,0,.3.3,0,0,1,.21.11.18.18,0,0,1,0,.16.21.21,0,0,1-.06.1.2.2,0,0,1-.11,0h0v.28h0a.38.38,0,0,0,.22-.06.47.47,0,0,0,.19-.29.5.5,0,0,0-.06-.38.61.61,0,0,0-.37-.23A.51.51,0,0,0,65.51,48.83Zm-.14.57a.27.27,0,0,1,0-.13.41.41,0,0,1,.2-.37.45.45,0,0,1,.35,0,.5.5,0,0,1,.32.2.31.31,0,0,1,.07.21.36.36,0,0,1,0,.11.33.33,0,0,1-.29.29v-.13a.28.28,0,0,0,.12,0,.38.38,0,0,0,.09-.15v-.07a.23.23,0,0,0,0-.15.55.55,0,0,0-.55-.13.24.24,0,0,0-.14.18s0,0,0,.06a.26.26,0,0,0,0,.11.32.32,0,0,0,.12.11l-.06.1A.31.31,0,0,1,65.37,49.4Z"/><path class="cls-15" d="M65.16,49.79l.92.36-.26.68-.15-.06.19-.5-.21-.08-.17.47-.16-.06.18-.47L65.25,50l-.2.51-.15-.06Z"/><path d="M65.13,49.78l-.28.74.22.08.2-.51.18.07-.18.46.23.09s.15-.41.18-.47l.13,0-.19.5.23.09.28-.76-1-.38Zm.06.06.85.33c0,.06-.22.55-.24.61l-.08,0c0-.07.19-.5.19-.5l-.28-.11s-.15.41-.18.47l-.08,0,.18-.46L65.23,50l-.2.51-.08,0C65,50.41,65.16,49.9,65.19,49.84Z"/><path class="cls-15" d="M64.79,50.73l.86.47-.09.17-.77,0,.58.32-.09.16-.86-.47.09-.18.75,0-.56-.31Z"/><path d="M64.75,50.71l-.1.2.48.26-.64,0-.13.22.94.51.12-.23-.49-.27.65,0,.13-.22-.94-.51Zm0,.07.8.44-.06.11-.89.05.67.36,0,.1-.8-.44.06-.12.87-.05-.65-.35A.47.47,0,0,0,64.8,50.78Z"/><path class="cls-15" d="M64.12,51.85l.67.47.17-.23.14.1-.46.63-.14-.1.17-.23L64,52Z"/><path d="M64.09,51.82,64,52l.67.47-.17.24.2.14.5-.69L65,52l-.17.24-.66-.48Zm0,.08.67.48.17-.24.07,0-.41.58-.08-.06s.18-.23.18-.23L64.06,52Z"/><path class="cls-15" d="M63.7,52.41l.72.68-.29.3a.66.66,0,0,1-.17.15.26.26,0,0,1-.15,0,.27.27,0,0,1-.14-.07.23.23,0,0,1-.09-.18.27.27,0,0,1,.06-.2l-.13,0-.19,0-.23,0,.17-.17.25,0,.18,0,.07,0,.08-.06,0,0-.3-.28ZM64,53l-.1.1a.79.79,0,0,0-.12.14.08.08,0,0,0,0,.07.08.08,0,0,0,0,.07.11.11,0,0,0,.07,0,.08.08,0,0,0,.08,0l.1-.1.11-.11Z"/><path d="M63.67,52.39l-.16.17.3.28h0l-.07.06h-.05l-.17,0-.28,0-.22.24.29.06.2,0h.06a.31.31,0,0,0,0,.13v0a.3.3,0,0,0,.1.19.29.29,0,0,0,.16.09.32.32,0,0,0,.17,0,1.06,1.06,0,0,0,.19-.16l.31-.34-.77-.72Zm0,.08.67.62c-.05,0-.27.28-.27.28a.6.6,0,0,1-.16.14.17.17,0,0,1-.12,0,.31.31,0,0,1-.13-.06.23.23,0,0,1-.07-.15.25.25,0,0,1,.05-.18l.07-.09-.11,0-.12,0-.19,0-.15,0,.1-.11.24,0,.18,0,.09,0,.08-.08.06,0-.3-.28A.34.34,0,0,1,63.7,52.47Z"/><path d="M64,52.92l-.1.11a.8.8,0,0,0-.12.15.14.14,0,0,0,0,.09.2.2,0,0,0,.05.09.21.21,0,0,0,.1,0,.17.17,0,0,0,.11,0l.1-.1.14-.14L64,52.89Zm-.07.4a.07.07,0,0,1-.06,0l0,0h0a0,0,0,0,1,0,0s0,0,.11-.13L64,53l.13.12L64,53.2l-.1.11S63.89,53.33,63.88,53.32Z"/><path class="cls-15" d="M62.26,53.75l.17-.14.2.12.31-.25-.08-.22.16-.14.33,1-.17.13Zm.53.07.33.2L63,53.65Z"/><path d="M63,53.09l-.18.15.07.23-.26.21-.21-.12-.23.19,1,.56.2-.17L63,53.06Zm0,.1c0,.09.28.88.29.93l-.12.1-.86-.48.11-.08.21.12L63,53.5l-.07-.23Z"/><path d="M63,53.62l-.25.2.47.28L63,53.59Zm0,.09c0,.06,0,.14.07.22l-.2-.12Z"/><path class="cls-15" d="M62.09,53.85l.51.83-.17.11L62,54.1l-.42.26-.08-.15Z"/><path d="M62.07,53.82l-.63.38.13.21.42-.26.43.69.23-.14-.55-.9Zm0,.08.48.77-.11.07L62,54l-.42.26-.05-.07Z"/><path class="cls-15" d="M61.29,54.32l.41.9-.66.3L61,55.37l.48-.22-.09-.2-.45.21L60.84,55l.45-.2-.11-.24-.5.22-.07-.15Z"/><path d="M61.28,54.29l-.72.32.1.22.5-.22.08.17-.45.21.1.22.45-.21.06.13-.48.22.1.22.73-.33-.44-1Zm0,.08.38.83-.59.27a.3.3,0,0,1,0-.08l.48-.22-.12-.27-.45.2,0-.08.45-.2-.14-.32-.5.23,0-.08Z"/><path d="M52.24,45.07a7.33,7.33,0,0,0,.4,2.16,8.39,8.39,0,0,0,1.77,2.46,5.14,5.14,0,0,0,2.13.66,1.39,1.39,0,0,0,.82-.4,4.11,4.11,0,0,1-.18.38.28.28,0,0,0,0,.15c0,.26.31.55.33.57l.06,0a3,3,0,0,1,.21-1.1h0v-.64l-.3,0v0a1.14,1.14,0,0,1-.77.54c-.57,0-1.17-.51-1.8-1.1l-.3-.27a4.54,4.54,0,0,1-1.14-2.73v0L52.24,45Zm2.22,4.56a8.14,8.14,0,0,1-1.75-2.43,7.56,7.56,0,0,1-.39-2.06l1,.64a4.51,4.51,0,0,0,1.16,2.76l.29.28c.65.6,1.27,1.17,1.86,1.11a1.17,1.17,0,0,0,.82-.56l.19,0v.55a4,4,0,0,0-.23,1v0a.79.79,0,0,1-.23-.43.2.2,0,0,1,0-.11,3.51,3.51,0,0,0,.25-.56l-.06,0a1.55,1.55,0,0,1-.89.5A5,5,0,0,1,54.46,49.63Z"/><path d="M53.55,42.38v.09a11.79,11.79,0,0,0,.17,2.42,11.87,11.87,0,0,0,1.58,3.17,2.75,2.75,0,0,0,1.51,1c.33,0,.65-.52.73-.67l.18.13.19-.13c.08.15.4.67.73.67a2.75,2.75,0,0,0,1.51-1,11.87,11.87,0,0,0,1.58-3.17,11.79,11.79,0,0,0,.17-2.42v-.18l-1,1v0a7,7,0,0,1-.65,3.58c-.56.87-1.12,1.64-1.61,1.59-.26,0-.5-.28-.71-.79v0l-.23,0-.22,0v0c-.21.51-.45.77-.71.79-.49,0-1.05-.72-1.61-1.59a7,7,0,0,1-.65-3.58v0l-1-1Zm8.28.09v.09a10.73,10.73,0,0,1-.18,2.31A11.8,11.8,0,0,1,60.09,48a2.7,2.7,0,0,1-1.45.93c-.33,0-.68-.66-.69-.66l0,0-.21.15-.2-.15,0,0s-.36.66-.69.66A2.76,2.76,0,0,1,55.35,48a12.1,12.1,0,0,1-1.55-3.14,10.73,10.73,0,0,1-.18-2.31v-.09c.11.11.8.81.83.83a4,4,0,0,0,0,.52,6.24,6.24,0,0,0,.67,3.09c.61.92,1.15,1.68,1.68,1.63.3,0,.55-.29.78-.82l.16,0,.17,0c.23.53.48.79.78.82.53.05,1.07-.71,1.68-1.63A6.24,6.24,0,0,0,61,43.82a4,4,0,0,0,0-.52S61.71,42.58,61.83,42.47Z"/><path d="M63.15,45l-1.12.7v0a4.54,4.54,0,0,1-1.14,2.73l-.3.27c-.63.59-1.23,1.15-1.8,1.1a1.14,1.14,0,0,1-.77-.54v0l-.3,0v.64h0a3,3,0,0,1,.21,1.1l.06,0s.33-.31.33-.57a.28.28,0,0,0,0-.15,4.11,4.11,0,0,1-.18-.38,1.39,1.39,0,0,0,.82.4A5.14,5.14,0,0,0,61,49.69a8.39,8.39,0,0,0,1.77-2.46,7.33,7.33,0,0,0,.4-2.16V45Zm0,.1a7.56,7.56,0,0,1-.39,2.06A8.32,8.32,0,0,1,61,49.63a5,5,0,0,1-2.08.64,1.51,1.51,0,0,1-.89-.5l-.06,0a2.71,2.71,0,0,0,.25.56.2.2,0,0,1,0,.11.79.79,0,0,1-.23.43v0a4,4,0,0,0-.23-1v-.55l.19,0a1.17,1.17,0,0,0,.82.56c.59.06,1.21-.51,1.86-1.11l.29-.28a4.51,4.51,0,0,0,1.16-2.76Z"/><path class="cls-16" d="M54.53,48.52a4.58,4.58,0,0,1-1.15-2.76l-1.1-.69a7.44,7.44,0,0,0,.4,2.15,8.17,8.17,0,0,0,1.76,2.44,5,5,0,0,0,2.1.65,1.57,1.57,0,0,0,.92-.51,4.19,4.19,0,0,1-.25.55c-.15.27.29.67.29.67a3,3,0,0,1,.21-1.12v-.59l-.25,0C56.56,50.6,55.58,49.47,54.53,48.52Zm4.11.46A2.8,2.8,0,0,0,60.13,48a12.25,12.25,0,0,0,1.56-3.16,12,12,0,0,0,.17-2.5l-.89.91a7.16,7.16,0,0,1-.65,3.6c-.83,1.26-1.69,2.47-2.4.8l-.2,0-.19,0c-.71,1.67-1.57.46-2.4-.8a7.16,7.16,0,0,1-.65-3.6l-.89-.91a12,12,0,0,0,.17,2.5A12.25,12.25,0,0,0,55.32,48a2.8,2.8,0,0,0,1.49.94c.36,0,.72-.69.72-.69l.19.14.2-.14S58.28,49,58.64,49Zm3.42-3.22a4.55,4.55,0,0,1-1.14,2.76c-1.05.95-2,2.08-2.93.82l-.25,0v.59A3,3,0,0,1,58,51s.44-.4.29-.67A4.19,4.19,0,0,1,58,49.8a1.57,1.57,0,0,0,.92.51,4.92,4.92,0,0,0,2.1-.65,8.17,8.17,0,0,0,1.76-2.44,7.44,7.44,0,0,0,.4-2.15Z"/><path class="cls-17" d="M64.78,48l-.32.22a.73.73,0,0,0,0-.27.55.55,0,0,0-.36.15,1.7,1.7,0,0,1,.2-.55c.14-.21.36-.45.56-.74a1.44,1.44,0,0,0,.22-.71l-.3.32.1-.62-.24.33a.71.71,0,0,0,0-.28c-.23.08-.4.51-.4.51a.28.28,0,0,0,0-.13l.09,0a2,2,0,0,1-.12-.74c0-.22.08-.5.12-.81a1.37,1.37,0,0,0-.12-.65l-.09.37-.17-.53,0,.35a.72.72,0,0,0-.12-.21.66.66,0,0,0-.1.36,1.84,1.84,0,0,1-.26-.47c-.06-.17-.09-.41-.17-.65a1.46,1.46,0,0,0-.27-.48L63,43l-.27-.38.08.29a.57.57,0,0,0-.15-.14c0,.14.12.45.12.45a.52.52,0,0,0-.48-.12l.11.11a.75.75,0,0,0-.17,0,.67.67,0,0,0,.26.22c-.06,0-.13.11-.13.11a1.4,1.4,0,0,0,1,.49c.2,0,.29.35.29.35l0,0a.45.45,0,0,0,0,.1.74.74,0,0,0-.57-.32l.08.18a1.4,1.4,0,0,0-.25,0,.89.89,0,0,0,.23.35c-.07,0-.23.08-.23.08.09.49.77.8,1,.92a.41.41,0,0,1,.2.39,1,1,0,0,0-.38-.37v.21a1.36,1.36,0,0,0-.26-.16.85.85,0,0,0,.08.47c-.07-.08-.3-.05-.3-.05-.16.54.43,1.21.65,1.46a.51.51,0,0,1,0,.56,1.21,1.21,0,0,0-.42-.71l0,.2a2.35,2.35,0,0,0-.26-.25.84.84,0,0,0,0,.47c-.06-.09-.33-.16-.33-.16-.26.45.3,1.31.51,1.64s-.16.57-.16.57l.06,0-.11.07a1.34,1.34,0,0,0-.26-1l-.1.21a2.53,2.53,0,0,0-.22-.35.84.84,0,0,0-.12.51c0-.12-.32-.27-.32-.27-.41.41,0,1.52.13,1.93s-.31.58-.31.58l0,0-.13,0a1.31,1.31,0,0,0,.15-1l-.18.14a2.49,2.49,0,0,0-.05-.39.83.83,0,0,0-.32.41c0-.12-.18-.36-.18-.36-.54.21-.63,1.35-.67,1.77a.44.44,0,0,1-.45.39,1.58,1.58,0,0,0,.45-.87L60.4,52a2.06,2.06,0,0,0,.1-.45,1,1,0,0,0-.52.32c.06-.13,0-.46,0-.46-.69,0-1.26,1.19-1.48,1.62s-.74.22-.74.22-.53.21-.75-.22-.79-1.61-1.48-1.62c0,0-.11.33,0,.46a1,1,0,0,0-.52-.32A3,3,0,0,0,55,52l-.25-.09a1.53,1.53,0,0,0,.44.87.44.44,0,0,1-.45-.39c0-.42-.13-1.56-.67-1.77,0,0-.19.24-.18.36a.85.85,0,0,0-.31-.41,2.1,2.1,0,0,0-.06.39l-.17-.14a1.28,1.28,0,0,0,.14,1l-.13,0,0,0s-.46-.17-.31-.58.54-1.52.13-1.93c0,0-.28.15-.32.27A.88.88,0,0,0,52.8,49a2.24,2.24,0,0,0-.23.35l-.09-.21a1.33,1.33,0,0,0-.27,1L52.1,50l.06,0s-.36-.25-.15-.57.76-1.19.5-1.64c0,0-.27.07-.33.16a.75.75,0,0,0,0-.47,2.35,2.35,0,0,0-.26.25l0-.2a1.21,1.21,0,0,0-.42.71.49.49,0,0,1,0-.56c.21-.25.8-.92.64-1.46,0,0-.23,0-.29.05a.89.89,0,0,0,.07-.47,1.36,1.36,0,0,0-.26.16v-.21a1,1,0,0,0-.38.37.44.44,0,0,1,.21-.39c.25-.12.93-.43,1-.92,0,0-.16-.11-.23-.08a.89.89,0,0,0,.23-.35,1.4,1.4,0,0,0-.25,0l.08-.18a.74.74,0,0,0-.57.32.45.45,0,0,0,0-.1l0,0s.09-.32.29-.35a1.4,1.4,0,0,0,1-.49s-.07-.12-.13-.11a.67.67,0,0,0,.26-.22.75.75,0,0,0-.17,0l.11-.11a.5.5,0,0,0-.47.12,1,1,0,0,0,.11-.45.57.57,0,0,0-.15.14l.09-.29-.28.38,0-.31a1.46,1.46,0,0,0-.27.48c-.07.24-.11.48-.17.65a1.84,1.84,0,0,1-.26.47.66.66,0,0,0-.1-.36.72.72,0,0,0-.12.21l0-.35-.17.53L51.22,44a1.37,1.37,0,0,0-.12.65c0,.31.11.59.12.81a2,2,0,0,1-.12.74l.09,0a.28.28,0,0,0,0,.13s-.17-.43-.4-.51a1,1,0,0,0,0,.28l-.23-.33.1.62-.3-.32a1.38,1.38,0,0,0,.21.71c.2.29.43.53.56.74a1.5,1.5,0,0,1,.2.55.53.53,0,0,0-.36-.15.73.73,0,0,0,0,.27L50.63,48l.21.55-.39-.19a1.1,1.1,0,0,0,.35.59c.28.19.57.34.76.49a1.34,1.34,0,0,1,.34.48.59.59,0,0,0-.37,0,.82.82,0,0,0,.1.29L51.22,50l.38.54-.48-.09a1.05,1.05,0,0,0,.54.53c.35.13.71.2,1,.3a1.45,1.45,0,0,1,.51.45.58.58,0,0,0-.31.11s.13.19.21.22l-.43,0,.56.34-.47.1a1.12,1.12,0,0,0,.7.28c.38,0,.73-.1,1-.09a1.42,1.42,0,0,1,.66.21.74.74,0,0,0-.45.29.86.86,0,0,0,.32.15l-.48.2.77.14L54.7,54a1.44,1.44,0,0,0,.91,0c.41-.16.77-.39,1.07-.49a2.38,2.38,0,0,1,1,0,2.33,2.33,0,0,1,1,0c.3.1.66.33,1.07.49a1.44,1.44,0,0,0,.91,0l-.49-.29.77-.14-.47-.2a1,1,0,0,0,.32-.15.8.8,0,0,0-.46-.29,1.45,1.45,0,0,1,.66-.21c.26,0,.62.07,1,.09a1.16,1.16,0,0,0,.71-.28l-.48-.1.56-.34-.43,0c.08,0,.21-.22.21-.22a.55.55,0,0,0-.31-.11,1.54,1.54,0,0,1,.51-.45c.24-.1.6-.17,1-.3a1.1,1.1,0,0,0,.54-.53l-.48.09.37-.54-.41.15a.82.82,0,0,0,.1-.29.55.55,0,0,0-.36,0,1.21,1.21,0,0,1,.33-.48c.19-.15.48-.3.76-.49a1.1,1.1,0,0,0,.35-.59l-.39.19Zm-9.54,4.91,0,0,.06,0Zm4.86,0,.06,0,0,0Z"/><path d="M62.81,42.94a.7.7,0,0,0-.12-.15,3.7,3.7,0,0,0,.09.48.48.48,0,0,0-.46-.15l.09.14s-.16,0-.16,0a2.84,2.84,0,0,0,.26.24c-.06,0-.13.08-.14.09a1.35,1.35,0,0,0,1,.51c.2,0,.29.34.29.35-.11-.25-.51-.26-.51-.26l.06.19a1,1,0,0,0-.23,0,3.28,3.28,0,0,0,.22.37c-.06-.06-.21,0-.23.06.09.51.76.82,1,.94,0,0,.07.07.1.11s0-.11-.08-.14c-.26-.12-.92-.43-1-.9,0,0,.15-.09.21-.06h0a2.44,2.44,0,0,0-.21-.36,1,1,0,0,0,.22,0l0-.19a.85.85,0,0,1,.53.33c0-.11-.11-.42-.31-.46a1.36,1.36,0,0,1-1-.48s.08-.09.11-.09h0a1.81,1.81,0,0,0-.24-.24s.16,0,.16,0l-.09-.14a.62.62,0,0,1,.44.14s0,0,0,0a2.89,2.89,0,0,0-.09-.43.81.81,0,0,0,.11.13h0s-.05-.28-.05-.28l.25.39s0-.29,0-.31a4.85,4.85,0,0,0,.25.47l.17.66.26.47a1.61,1.61,0,0,0,.12-.35,1.23,1.23,0,0,0,.1.2v0h0s.07-.34.07-.34l.13.54.13-.38a0,0,0,0,0,0,0c0,.12.09.62.09.62l-.06.41-.06.4.1.56a5.6,5.6,0,0,0-.07-.56l.06-.4.07-.41L64.21,44l-.13.38L64,43.82s-.07.32-.07.35a1.61,1.61,0,0,0-.09-.21h0a1.47,1.47,0,0,0-.13.37,3.44,3.44,0,0,0-.23-.47l-.17-.66L63,42.72,63,43l-.25-.39S62.81,42.91,62.81,42.94ZM52.38,43l.08-.29a2.85,2.85,0,0,0-.31.46l-.08.33-.09.33-.25.46h0a3.17,3.17,0,0,0-.08-.35,1.43,1.43,0,0,0-.15.22v-.36l-.19.54L51.24,44a3.61,3.61,0,0,0-.15.65l.06.41.06.4-.13.73a.63.63,0,0,0-.32-.36,1.65,1.65,0,0,0,0,.3l-.2-.35.07.64-.27-.34h0c0,.09.19.72.19.72l.29.38.28.36s.19.53.2.54a3.52,3.52,0,0,0-.35-.16,2.71,2.71,0,0,0,0,.29L50.64,48l.19.57-.37-.21s0,0,0,0a.91.91,0,0,0,.34.6l.39.25.37.24.33.48a2.11,2.11,0,0,0-.35,0,2.45,2.45,0,0,0,.09.32L51.23,50l.35.57-.46-.12h0a1,1,0,0,0,.53.56l.49.15.47.15.5.44a1.93,1.93,0,0,0-.31.09,2.76,2.76,0,0,0,.21.25h-.42l.55.37-.47.07a1,1,0,0,0,.71.3l.51,0,.48,0L55,53a4.68,4.68,0,0,0-.46.27,2.26,2.26,0,0,0,.34.18l-.48.16.77.17L54.7,54a1.24,1.24,0,0,0,.91,0l.55-.25.52-.24a2.19,2.19,0,0,1,1,0,2.24,2.24,0,0,1,1,0l.52.24.55.25a1.41,1.41,0,0,0,.91,0l-.48-.32.76-.11-.46-.22a2,2,0,0,0,.31-.12h0s-.45-.32-.45-.32a5.25,5.25,0,0,0,.65-.18l.48,0,.51,0a1.21,1.21,0,0,0,.72-.27l-.48-.13.56-.31-.43,0a2.08,2.08,0,0,0,.21-.2,1.79,1.79,0,0,0-.32-.13s.52-.42.52-.42l.47-.15.48-.15a1.15,1.15,0,0,0,.55-.54l-.5.06L64.2,50l-.42.12a1.18,1.18,0,0,0,.11-.27,2.41,2.41,0,0,0-.38,0,3.5,3.5,0,0,0,.35-.46l.37-.24.39-.25a1.13,1.13,0,0,0,.36-.6l-.42.17.23-.53,0,0-.35.26a1.27,1.27,0,0,0,0-.26s-.38.14-.38.14a4,4,0,0,0,.23-.53l.27-.37.29-.37.21-.72-.32.31.12-.61-.26.32s0-.05,0-.11v-.16c-.25.06-.41.46-.43.5a0,0,0,0,0,0,0v0l0,0a.1.1,0,0,0,0,0s.2-.42.42-.49c0,0,0,0,0,.07s0,.19,0,.19l.26-.32-.13.61.33-.31a5.16,5.16,0,0,0-.24.69l-.28.37-.28.37-.21.56a3.37,3.37,0,0,0,.38-.13,1,1,0,0,0,0,.24l.3-.18-.19.51.41-.17s-.11.38-.37.57l-.38.24-.38.25-.34.49a2.22,2.22,0,0,0,.37,0s-.1.26-.1.26l.42-.12-.39.52.5-.07s-.22.39-.55.51l-.48.15-.48.15-.52.45a1.66,1.66,0,0,0,.32.13l-.2.2.43,0-.56.31.47.13a1.47,1.47,0,0,1-.7.24l-.5,0-.49,0-.66.21a4.48,4.48,0,0,0,.44.32,3,3,0,0,0-.3.13l.46.22-.76.11.48.32a1.76,1.76,0,0,1-.89,0l-.54-.25-.53-.24a2.28,2.28,0,0,0-1,0,2.24,2.24,0,0,0-1,0l-.53.24L55.6,54a1.36,1.36,0,0,1-.89,0l.49-.26-.77-.17.47-.16a1.65,1.65,0,0,0-.31-.18S55,53,55,53h0a5.84,5.84,0,0,0-.66-.24l-.49,0-.5,0a1.12,1.12,0,0,1-.69-.27l.46-.07-.55-.37H53s-.19-.24-.19-.25a1.57,1.57,0,0,0,.29-.08,4.52,4.52,0,0,0-.5-.48l-.47-.15L51.66,51a1.16,1.16,0,0,1-.53-.53l.46.11L51.24,50l.38.17h0a1.85,1.85,0,0,0-.08-.29l.34,0a4.39,4.39,0,0,0-.32-.51l-.37-.25-.39-.24a1.08,1.08,0,0,1-.34-.58l.36.2L50.64,48l.3.24s0,0,0-.09,0-.18,0-.18.33.15.33.15a3.77,3.77,0,0,0-.18-.57l-.27-.36-.29-.38-.21-.7.27.33-.07-.63.21.34s0-.28,0-.28c.2.08.37.5.37.51s.06-.14.06-.14,0-.76,0-.76L51.18,45l-.06-.4.11-.64.07.37.19-.54v.36s.15-.21.15-.21a2.17,2.17,0,0,0,.07.35,3.21,3.21,0,0,0,.29-.46l.09-.33.08-.33.28-.47-.08.3.3-.37-.11.27s.16-.12.17-.12a2.39,2.39,0,0,0-.14.43.59.59,0,0,1,.48-.1l-.11.09s.17,0,.17.06a1.8,1.8,0,0,0-.25.18.41.41,0,0,1,.12.14,1.37,1.37,0,0,1-.93.46c-.22,0-.32.35-.32.37a0,0,0,0,0,0,0c.06-.11.15-.3.3-.33a1.36,1.36,0,0,0,1-.49s-.07-.14-.14-.14a1.75,1.75,0,0,0,.27-.19.77.77,0,0,0-.19,0l.12-.09a.43.43,0,0,0-.49.1,2.81,2.81,0,0,0,.13-.45s-.17.14-.17.14l.11-.27ZM51.09,46.2a.09.09,0,0,1,.06.09s0,0,0,0A.55.55,0,0,0,51.09,46.2Zm.8-1.83a1.2,1.2,0,0,1,.41-.14l-.09.15a1,1,0,0,0,.25,0,3.19,3.19,0,0,0-.23.32.54.54,0,0,1,.23.1c-.09.46-.76.77-1,.89a.48.48,0,0,0-.23.41,3.64,3.64,0,0,0,.41-.36l0,.2s.27-.15.27-.15a3.58,3.58,0,0,0-.09.45.86.86,0,0,1,.31,0c.14.51-.43,1.18-.65,1.43a.52.52,0,0,0,0,.59,1.4,1.4,0,0,1,.44-.71l0,.2a3.53,3.53,0,0,0,.28-.25,3.55,3.55,0,0,0,0,.46,2.32,2.32,0,0,0,.35-.14c.24.43-.3,1.27-.51,1.59a.45.45,0,0,0,.15.61.06.06,0,0,1,0,0A.45.45,0,0,1,52,49.6a.29.29,0,0,1,.06-.19,3.15,3.15,0,0,0,.57-1.36.54.54,0,0,0-.07-.29,3.88,3.88,0,0,0-.36.15,2.38,2.38,0,0,0,0-.46s-.29.24-.29.24V47.5a1,1,0,0,0-.45.71.57.57,0,0,1,0-.55c.23-.26.81-.94.65-1.48,0,0-.26,0-.32,0a4.3,4.3,0,0,0,.09-.47,1.87,1.87,0,0,0-.28.16l0-.2a3.42,3.42,0,0,0-.4.36c0-.12.07-.3.22-.37s.94-.43,1-.93c0,0-.16-.13-.25-.09a2.21,2.21,0,0,0,.25-.33,1.11,1.11,0,0,0-.26,0l.1-.15A.66.66,0,0,0,51.89,44.37Zm-.12.07-.05.08a.8.8,0,0,1,.17-.15S51.8,44.4,51.77,44.44Zm12,1.49s-.23-.18-.23-.18a3.87,3.87,0,0,0,.05.49c0-.09-.27-.07-.28-.07-.18.55.38,1.2.62,1.48a.5.5,0,0,1,0,.55,1.05,1.05,0,0,0-.4-.71s-.06.2-.07.21a2,2,0,0,0-.23-.26,1.54,1.54,0,0,0,0,.37v.11a2.38,2.38,0,0,0-.31-.17.55.55,0,0,0-.08.31,2.93,2.93,0,0,0,.55,1.32.4.4,0,0,1,.07.22.51.51,0,0,1-.2.36l0,.1.1,0h0s.18-.2.18-.41a.37.37,0,0,0-.07-.21,3.12,3.12,0,0,1-.57-1.34.53.53,0,0,1,.07-.28,2.19,2.19,0,0,0,.3.16,1.59,1.59,0,0,0,0-.37v-.1a2.94,2.94,0,0,0,.24.25l.07-.2a1.35,1.35,0,0,1,.38.7.45.45,0,0,0,0-.57c-.25-.29-.8-.93-.65-1.45,0,0,.23,0,.27.06s0,0,0,0-.05-.43-.05-.44a1.62,1.62,0,0,0,.23.18l0-.23a3.28,3.28,0,0,0,.35.38V46s0,0,0-.06a.6.6,0,0,1,0,.12,4.38,4.38,0,0,0-.35-.38Zm.36,0a.32.32,0,0,0-.08-.14A.32.32,0,0,1,64.13,46Zm.14.11c0,.07,0,.13,0,.13a.26.26,0,0,0,0,.07s0-.07,0-.07a1.83,1.83,0,0,1,0-.19Zm-1.78,3.41a4,4,0,0,0-.3-.29c-.43.42-.06,1.48.1,1.93a.45.45,0,0,1-.29.58c.21-.24.08-.85.07-.88l-.2.14s0,0,0,0,0-.36,0-.36a4.35,4.35,0,0,0-.34.41h0a3.17,3.17,0,0,0-.16-.36c-.55.2-.65,1.29-.69,1.75a.44.44,0,0,1-.44.41,1.43,1.43,0,0,0,.46-.86L60.4,52a3.45,3.45,0,0,0,.12-.43s-.55.31-.55.31a.1.1,0,0,0,0,0c0-.12,0-.41,0-.41-.71,0-1.29,1.16-1.5,1.59s-.72.24-.74.24-.53.2-.74-.22-.8-1.61-1.49-1.62c0,0-.06.47-.06.48a3.77,3.77,0,0,0-.51-.34A3.4,3.4,0,0,0,55,52l-.23-.11a1.38,1.38,0,0,0,.43.91c-.11,0-.4-.1-.42-.41-.05-.49-.15-1.58-.68-1.79a3.48,3.48,0,0,0-.2.38,4,4,0,0,0-.3-.43,3.28,3.28,0,0,0-.08.41l-.14-.16a.92.92,0,0,0-.06.38s0,0,0,.06a2.42,2.42,0,0,1,0-.42l.15.16a2.12,2.12,0,0,0,.08-.41,3.82,3.82,0,0,0,.28.42,2,2,0,0,0,.21-.36c.5.21.6,1.31.64,1.73a.47.47,0,0,0,.47.44,1.74,1.74,0,0,1-.43-.89L55,52s0,0,0,0a4.4,4.4,0,0,0-.09-.45s.5.33.5.33a2.78,2.78,0,0,0,.08-.46c.65,0,1.22,1.16,1.43,1.59a.6.6,0,0,0,.78.25s.54.22.76-.22.79-1.6,1.46-1.61v0c0,.07,0,.41,0,.41a4.49,4.49,0,0,0,.53-.29,3.25,3.25,0,0,0-.11.42l.27-.07a1.78,1.78,0,0,1-.46.85.42.42,0,0,0,.48-.38c0-.44.14-1.55.66-1.76h0s.16.35.16.35a3.14,3.14,0,0,0,.34-.4v0c0,.09,0,.35,0,.35l.2-.13h0s0,.15,0,.28a1,1,0,0,1-.19.64s.15,0,.15,0h0s.32-.18.32-.47a.55.55,0,0,0,0-.17A4.63,4.63,0,0,1,62,49.77a.74.74,0,0,1,.17-.55,3.65,3.65,0,0,0,.3.27,4.84,4.84,0,0,0,.14-.51,2.76,2.76,0,0,0,.19.35l.13-.21s.36.53.24,1h0a.47.47,0,0,0,0-.17,1.61,1.61,0,0,0-.3-.79l-.13.21a2.76,2.76,0,0,0-.19-.35A3.07,3.07,0,0,0,62.49,49.48Zm-9.93-.16-.07-.21a1.46,1.46,0,0,0-.25.53,5.36,5.36,0,0,1,.25-.52l.07.21a2.53,2.53,0,0,0,.25-.35h0c0,.09.08.49.08.49a2,2,0,0,0,.35-.26.76.76,0,0,1,.16.53,4.56,4.56,0,0,1-.31,1.36.57.57,0,0,0,0,.18.4.4,0,0,0,.25.38.43.43,0,0,1-.23-.37.5.5,0,0,1,0-.16,4.6,4.6,0,0,0,.32-1.37.76.76,0,0,0-.19-.57,3.07,3.07,0,0,0-.35.28s0,0,0,0-.09-.5-.09-.5A2.6,2.6,0,0,0,52.56,49.32Zm-.42.61h0l0,0,0,.12a1.11,1.11,0,0,1,0-.19.72.72,0,0,1,.07-.25A.91.91,0,0,0,52.14,49.93Zm11.08.13v0Zm-9.9,1.25a.9.9,0,0,0,.08.42l-.09-.06s.07.06.07.07h0s.12,0,.12,0a.84.84,0,0,1-.16-.54S53.32,51.29,53.32,51.31Zm.17.48Z"/><path d="M52.69,41.44l.22.78h.3l4.5,4.49s4.44-4.45,4.47-4.47h.28l.25-.86-.73.33,0,.33-4.23,4.24L53.43,42s0-.31,0-.31l-.73-.33Zm.1.06.54.24s0,.3,0,.3l4.35,4.35,4.34-4.34,0,0a2.23,2.23,0,0,0,0-.27l.54-.24c0,.12-.17.6-.18.64h-.27L57.71,46.6l-4.46-4.46H53S52.82,41.62,52.79,41.5Z"/><path d="M51.2,44.43l.44.69.27-.09,5.8,3.6L63.48,45l.28.09.48-.76-.8.11-.12.3-5.61,3.49-5.63-3.49L52,44.47l-.79-.11Zm.11,0,.59.08.1.25v0l5.72,3.55,5.68-3.53v0s.1-.22.11-.26l.59-.08c-.07.1-.34.53-.36.57L63.47,45l-5.76,3.58L51.92,45l-.25.08S51.38,44.56,51.31,44.46Z"/><path class="cls-15" d="M53.23,42.18h0l4.48,4.48,4.45-4.46h.27l.22-.75-.64.29,0,.3h0l-4.28,4.28L53.39,42l0-.3-.63-.29.21.75Zm10.24,2.34-.11.28h0l-5.65,3.51L52,44.8h0l-.11-.28-.7-.1.42.66.27-.08,5.79,3.59L63.48,45l.27.08.42-.66Z"/><polygon class="cls-18" points="54.49 47.85 57.71 42.2 60.86 47.71 54.49 47.85"/><path d="M60.76,47.52H54.63l-1.1,2h8.35l-1.1-2Zm0,.08,1,1.8H53.66l1-1.8Z"/><polygon class="cls-16" points="60.76 47.56 54.65 47.56 53.59 49.44 57.71 49.44 61.82 49.44 60.76 47.56"/><path d="M56.06,46.85c-.26,0-.52.39-.77.73A3,3,0,0,1,55,48a1.19,1.19,0,0,1-.74.35h0l-.32.71h0a17.54,17.54,0,0,0,1.93,0h1.83A16,16,0,0,0,60,48.77a6.47,6.47,0,0,1,1.27-.11v-.08a4.67,4.67,0,0,1-1.68-.87,3.23,3.23,0,0,0-.66-.4.32.32,0,0,0-.35.07c-.06,0-.09.08-.22,0a.31.31,0,0,0-.42-.07l0,0c-.06-.15-.51-.17-.73-.16a.21.21,0,0,0-.21.11v0A.9.9,0,0,0,56.06,46.85Zm-1,1.16a4.89,4.89,0,0,0,.3-.39c.23-.31.49-.66.72-.7a.82.82,0,0,1,.79.34c0,.07,0,.09.08.09s0,0,.05,0,0-.1.16-.11c.33,0,.63,0,.67.12l0,0a.12.12,0,0,0,.1,0c.07,0,.17-.09.34.06s.24.11.32,0a.25.25,0,0,1,.28,0,3.61,3.61,0,0,1,.63.39,6.11,6.11,0,0,0,1.42.81,5.22,5.22,0,0,0-1,.12,17.11,17.11,0,0,1-2.27.23H57c-.37,0-.8,0-1.13,0-.67,0-1.64.05-1.85,0,0-.07.25-.55.26-.59A1.25,1.25,0,0,0,55.05,48Z"/><path class="cls-17" d="M54.26,48.34A1.24,1.24,0,0,0,55,48c.31-.33.69-1,1-1.1a.89.89,0,0,1,.83.36c.1.19,0-.06.25-.07s.65,0,.7.13.18-.2.47.07.22-.14.59,0,1.54,1.19,2.35,1.28a5.87,5.87,0,0,0-1.28.11,15.19,15.19,0,0,1-2.27.23c-.48,0-1.29,0-1.83,0A15.83,15.83,0,0,1,54,49Z"/><path d="M57.67,41.71l-.16.3h0L53.2,49.67h9l-4.5-8Zm-.1.33s.09-.16.14-.23l4.37,7.79H53.33Z"/><path d="M57.67,42.49l-3.81,6.8h7.7l-3.85-6.86Zm0,.1,3.71,6.62H54C54.05,49.1,57.64,42.7,57.71,42.59Z"/><path class="cls-15" d="M57.54,42l-4.27,7.6h8.87l-4.43-7.9Zm.17.48c.29.53,3.5,6.24,3.78,6.74H53.92Z"/></g></svg>