<svg xmlns="http://www.w3.org/2000/svg" xmlns:xlink="http://www.w3.org/1999/xlink" viewBox="0 0 115.33 115.33"><defs><style>.cls-1{mask:url(#mask);}.cls-2,.cls-3{mix-blend-mode:multiply;}.cls-2{fill:url(#linear-gradient);}.cls-3{fill:url(#linear-gradient-2);}.cls-4{fill:#d3d3d3;}.cls-5{fill:url(#linear-gradient-3);}.cls-6{fill:url(#linear-gradient-4);}.cls-7{mask:url(#mask-3);}.cls-8{opacity:0.7;fill:url(#linear-gradient-5);}.cls-9{fill:url(#Degradado_sin_nombre_17);}.cls-10{fill:url(#Degradado_sin_nombre_21);}.cls-11{fill:url(#Degradado_sin_nombre_19);}.cls-12{fill:url(#linear-gradient-6);}.cls-13{fill:url(#linear-gradient-7);}.cls-14{fill:url(#linear-gradient-8);}.cls-15{fill:url(#linear-gradient-9);}.cls-16{fill:url(#linear-gradient-10);}.cls-17{fill:url(#linear-gradient-12);}.cls-18{filter:url(#luminosity-noclip);}</style><filter id="luminosity-noclip" x="37.69" y="-8250" width="39.96" height="32766" filterUnits="userSpaceOnUse" color-interpolation-filters="sRGB"><feFlood flood-color="#fff" result="bg"/><feBlend in="SourceGraphic" in2="bg"/></filter><mask id="mask" x="37.69" y="-8250" width="39.96" height="32766" maskUnits="userSpaceOnUse"><g class="cls-18"/></mask><linearGradient id="linear-gradient" x1="-519.17" y1="-94.34" x2="-519.44" y2="-81.02" gradientTransform="translate(-466.67 -58.78) rotate(180) scale(1.01 1)" gradientUnits="userSpaceOnUse"><stop offset="0" stop-color="#080808"/><stop offset="1" stop-color="#bfbfbf"/></linearGradient><linearGradient id="linear-gradient-2" x1="-519.17" y1="-94.34" x2="-519.44" y2="-81.02" gradientTransform="translate(-466.67 -58.78) rotate(180) scale(1.01 1)" gradientUnits="userSpaceOnUse"><stop offset="0"/><stop offset="1" stop-color="#fff"/></linearGradient><linearGradient id="linear-gradient-3" x1="35.91" y1="116.75" x2="67.72" y2="15.03" gradientUnits="userSpaceOnUse"><stop offset="0" stop-color="#85888a"/><stop offset="0.29" stop-color="#f1f2f4"/><stop offset="0.68" stop-color="#fff"/><stop offset="0.73" stop-color="#fafafa"/><stop offset="0.79" stop-color="#ececed"/><stop offset="0.86" stop-color="#d4d5d6"/><stop offset="0.92" stop-color="#b3b5b6"/><stop offset="0.99" stop-color="#898c8e"/><stop offset="1" stop-color="#85888a"/></linearGradient><linearGradient id="linear-gradient-4" x1="20.66" y1="47.51" x2="86.67" y2="47.51" xlink:href="#linear-gradient-3"/><mask id="mask-3" x="37.69" y="20.99" width="39.96" height="26.64" maskUnits="userSpaceOnUse"><g class="cls-1"><path class="cls-2" d="M37.69,34.31C37.69,27,46.63,21,57.67,21s20,6,20,13.32-9,13.32-20,13.32S37.69,41.67,37.69,34.31Z"/></g></mask><filter id="luminosity-noclip-3" x="37.69" y="20.99" width="39.96" height="26.64" filterUnits="userSpaceOnUse" color-interpolation-filters="sRGB"><feFlood flood-color="#fff" result="bg"/><feBlend in="SourceGraphic" in2="bg"/></filter><linearGradient id="linear-gradient-5" x1="-506.25" y1="-93.09" x2="-505.75" y2="-93.09" gradientTransform="translate(-466.67 -58.78) rotate(180) scale(1.01 1)" gradientUnits="userSpaceOnUse"><stop offset="0" stop-color="#fff"/><stop offset="1" stop-color="#fff"/></linearGradient><radialGradient id="Degradado_sin_nombre_17" cx="248.24" cy="-370.42" r="26.6" gradientTransform="translate(-199.34 431.13) scale(1.04 1.04)" gradientUnits="userSpaceOnUse"><stop offset="0.84" stop-color="#0072cc"/><stop offset="0.87" stop-color="#0070c9" stop-opacity="0.99"/><stop offset="0.89" stop-color="#006bbf" stop-opacity="0.96"/><stop offset="0.91" stop-color="#0062af" stop-opacity="0.91"/><stop offset="0.93" stop-color="#005598" stop-opacity="0.85"/><stop offset="0.95" stop-color="#00447a" stop-opacity="0.76"/><stop offset="0.97" stop-color="#003055" stop-opacity="0.65"/><stop offset="0.99" stop-color="#00182b" stop-opacity="0.53"/><stop offset="1" stop-opacity="0.4"/></radialGradient><radialGradient id="Degradado_sin_nombre_21" cx="248.24" cy="-370.42" r="26.6" gradientTransform="translate(-199.34 431.13) scale(1.04 1.04)" gradientUnits="userSpaceOnUse"><stop offset="0.84" stop-color="#0072cc"/><stop offset="0.87" stop-color="#0070c9" stop-opacity="0.99"/><stop offset="0.89" stop-color="#006bbf" stop-opacity="0.96"/><stop offset="0.91" stop-color="#0062af" stop-opacity="0.91"/><stop offset="0.93" stop-color="#005598" stop-opacity="0.85"/><stop offset="0.95" stop-color="#00447a" stop-opacity="0.76"/><stop offset="0.96" stop-color="#003055" stop-opacity="0.65"/><stop offset="0.98" stop-color="#00182b" stop-opacity="0.53"/><stop offset="0.99" stop-opacity="0.4"/></radialGradient><radialGradient id="Degradado_sin_nombre_19" cx="248.24" cy="-370.42" r="26.6" gradientTransform="translate(-199.34 431.13) scale(1.04 1.04)" gradientUnits="userSpaceOnUse"><stop offset="0.84" stop-color="#ebebeb"/><stop offset="0.87" stop-color="#e8e8e8" stop-opacity="0.99"/><stop offset="0.89" stop-color="#dedede" stop-opacity="0.97"/><stop offset="0.91" stop-color="#cecece" stop-opacity="0.93"/><stop offset="0.92" stop-color="#b7b7b7" stop-opacity="0.87"/><stop offset="0.94" stop-color="#999" stop-opacity="0.79"/><stop offset="0.96" stop-color="#747474" stop-opacity="0.7"/><stop offset="0.97" stop-color="#494949" stop-opacity="0.59"/><stop offset="0.99" stop-color="#171717" stop-opacity="0.46"/><stop offset="0.99" stop-opacity="0.4"/></radialGradient><linearGradient id="linear-gradient-6" x1="-649.92" y1="-927.13" x2="-634.88" y2="-927.13" gradientTransform="translate(-869.46 706.16) rotate(90)" gradientUnits="userSpaceOnUse"><stop offset="0.01" stop-color="#0072cc"/><stop offset="0.24" stop-color="#0374cc"/><stop offset="0.43" stop-color="#0d79ce"/><stop offset="0.59" stop-color="#1d82d0"/><stop offset="0.74" stop-color="#348fd4"/><stop offset="0.89" stop-color="#529fd9"/><stop offset="1" stop-color="#6fafdd"/></linearGradient><linearGradient id="linear-gradient-7" x1="-668.24" y1="-927.13" x2="-683.16" y2="-927.13" gradientTransform="translate(-869.46 706.16) rotate(90)" gradientUnits="userSpaceOnUse"><stop offset="0.01" stop-color="#a1cceb"/><stop offset="0.26" stop-color="#a4ceec"/><stop offset="0.46" stop-color="#aed3ee"/><stop offset="0.63" stop-color="#bedcf1"/><stop offset="0.79" stop-color="#d5e8f6"/><stop offset="0.94" stop-color="#f2f8fc"/><stop offset="1" stop-color="#fff"/></linearGradient><linearGradient id="linear-gradient-8" x1="-653.88" y1="-927.18" x2="-668.24" y2="-927.12" gradientTransform="translate(-869.46 706.16) rotate(90)" gradientUnits="userSpaceOnUse"><stop offset="0.01" stop-color="#ebebeb"/><stop offset="0.47" stop-color="#f1f1f1"/><stop offset="1" stop-color="#fff"/></linearGradient><linearGradient id="linear-gradient-9" x1="57.71" y1="55.16" x2="57.71" y2="38.88" gradientUnits="userSpaceOnUse"><stop offset="0.01" stop-color="#0072cc"/><stop offset="0.48" stop-color="#4f9edb"/><stop offset="1" stop-color="#a1cceb"/></linearGradient><linearGradient id="linear-gradient-10" x1="65.14" y1="55.16" x2="65.14" y2="38.88" xlink:href="#linear-gradient-9"/><linearGradient id="linear-gradient-12" x1="50.18" y1="55.16" x2="50.18" y2="38.88" xlink:href="#linear-gradient-9"/></defs><title>shutterstock_1027459333 [Convertido]</title><g id="Flag_pin_icon" data-name="Flag pin icon"><path class="cls-4" d="M89.8,47.21A32.13,32.13,0,1,0,44.19,76.38l14,23.27,13-23.27A32.13,32.13,0,0,0,89.8,47.21Z"/><path class="cls-5" d="M58.17,100.86l-14.4-24a32.74,32.74,0,1,1,27.81,0Zm-.5-85.18A31.53,31.53,0,0,0,44.45,75.84l.17.07.09.16L58.13,98.44,70.71,75.91l.18-.08A31.53,31.53,0,0,0,57.67,15.68Z"/><path class="cls-6" d="M57.67,19.17A28.34,28.34,0,1,0,86,47.51,28.37,28.37,0,0,0,57.67,19.17Zm27,34.4a27.7,27.7,0,1,1,.67-6.06A28.13,28.13,0,0,1,84.69,53.57Z"/><g class="cls-7"><g class="cls-7"><path class="cls-8" d="M37.69,34.31C37.69,27,46.63,21,57.67,21s20,6,20,13.32-9,13.32-20,13.32S37.69,41.67,37.69,34.31Z"/></g></g><path class="cls-9" d="M57.67,19.5a27.55,27.55,0,0,0-26,18.42h52A27.54,27.54,0,0,0,57.67,19.5Z"/><path class="cls-10" d="M57.67,74.66a27.54,27.54,0,0,0,26-18.42H31.69A27.54,27.54,0,0,0,57.67,74.66Z"/><path class="cls-11" d="M85.21,47.08a27.54,27.54,0,0,0-1.57-9.16H31.69a27.67,27.67,0,0,0,0,18.32h52A27.54,27.54,0,0,0,85.21,47.08Z"/><path class="cls-12" d="M57.67,71.28c9.84,0,18.28-6.62,21.92-15H35.76C39.39,64.66,47.84,71.28,57.67,71.28Z"/><path class="cls-13" d="M57.67,22.89c-10.83,0-19.74,6.79-20.91,15H78.58C77.42,29.68,68.5,22.89,57.67,22.89Z"/><path class="cls-14" d="M78.72,39.75a12.32,12.32,0,0,0-.14-1.83H36.76a12.32,12.32,0,0,0-.13,1.83c0,9,9.42,12.52,21,12.52S78.72,48.8,78.72,39.75Z"/><polygon class="cls-15" points="57.71 44.15 58.37 46.2 60.52 46.2 58.78 47.46 59.45 49.51 57.71 48.24 55.97 49.51 56.63 47.46 54.89 46.2 57.05 46.2 57.71 44.15"/><polygon class="cls-16" points="65.14 39.65 65.8 41.7 67.95 41.7 66.21 42.97 66.88 45.01 65.14 43.74 63.4 45.01 64.06 42.97 62.32 41.7 64.47 41.7 65.14 39.65"/><polygon class="cls-16" points="65.14 48.96 65.8 51.01 67.95 51.01 66.21 52.27 66.88 54.32 65.14 53.05 63.4 54.32 64.06 52.27 62.32 51.01 64.47 51.01 65.14 48.96"/><polygon class="cls-17" points="50.18 48.96 50.84 51.01 52.99 51.01 51.25 52.27 51.92 54.32 50.18 53.05 48.44 54.32 49.1 52.27 47.36 51.01 49.51 51.01 50.18 48.96"/><polygon class="cls-17" points="50.18 39.65 50.84 41.7 52.99 41.7 51.25 42.97 51.92 45.01 50.18 43.74 48.44 45.01 49.1 42.97 47.36 41.7 49.51 41.7 50.18 39.65"/></g></svg>