<svg xmlns="http://www.w3.org/2000/svg" xmlns:xlink="http://www.w3.org/1999/xlink" viewBox="0 0 115.33 115.33"><defs><style>.cls-1{mask:url(#mask);}.cls-2,.cls-3{mix-blend-mode:multiply;}.cls-2{fill:url(#linear-gradient);}.cls-3{fill:url(#linear-gradient-2);}.cls-4{fill:#d3d3d3;}.cls-5{fill:url(#linear-gradient-3);}.cls-6{fill:url(#linear-gradient-4);}.cls-7{mask:url(#mask-3);}.cls-8{opacity:0.7;fill:url(#linear-gradient-5);}.cls-9{fill:url(#Degradado_sin_nombre_16);}.cls-10{fill:url(#Degradado_sin_nombre_14);}.cls-11{fill:url(#Degradado_sin_nombre_13);}.cls-12{fill:url(#linear-gradient-6);}.cls-13{fill:url(#linear-gradient-7);}.cls-14{fill:url(#linear-gradient-8);}.cls-15{fill:url(#linear-gradient-9);}.cls-16{fill:url(#linear-gradient-10);}.cls-17{fill:url(#linear-gradient-11);}.cls-18{fill:#6b2900;}.cls-19{fill:#006329;}.cls-20{fill:#949494;}.cls-21{fill:#ff9c08;}.cls-22{fill:#b5b5b5;}.cls-23{fill:#ffef6b;}.cls-24{fill:#006321;}.cls-25{fill:#ef9408;}.cls-26{fill:#e75208;}.cls-27{fill:#081872;}.cls-28{filter:url(#luminosity-noclip);}</style><filter id="luminosity-noclip" x="37.69" y="-8250" width="39.96" height="32766" filterUnits="userSpaceOnUse" color-interpolation-filters="sRGB"><feFlood flood-color="#fff" result="bg"/><feBlend in="SourceGraphic" in2="bg"/></filter><mask id="mask" x="37.69" y="-8250" width="39.96" height="32766" maskUnits="userSpaceOnUse"><g class="cls-28"/></mask><linearGradient id="linear-gradient" x1="-244.73" y1="-94.34" x2="-244.99" y2="-81.02" gradientTransform="translate(-189.51 -58.78) rotate(180) scale(1.01 1)" gradientUnits="userSpaceOnUse"><stop offset="0" stop-color="#080808"/><stop offset="1" stop-color="#bfbfbf"/></linearGradient><linearGradient id="linear-gradient-2" x1="-244.73" y1="-94.34" x2="-244.99" y2="-81.02" gradientTransform="translate(-189.51 -58.78) rotate(180) scale(1.01 1)" gradientUnits="userSpaceOnUse"><stop offset="0"/><stop offset="1" stop-color="#fff"/></linearGradient><linearGradient id="linear-gradient-3" x1="35.91" y1="116.75" x2="67.72" y2="15.03" gradientUnits="userSpaceOnUse"><stop offset="0" stop-color="#85888a"/><stop offset="0.29" stop-color="#f1f2f4"/><stop offset="0.68" stop-color="#fff"/><stop offset="0.73" stop-color="#fafafa"/><stop offset="0.79" stop-color="#ececed"/><stop offset="0.86" stop-color="#d4d5d6"/><stop offset="0.92" stop-color="#b3b5b6"/><stop offset="0.99" stop-color="#898c8e"/><stop offset="1" stop-color="#85888a"/></linearGradient><linearGradient id="linear-gradient-4" x1="20.66" y1="47.51" x2="86.67" y2="47.51" xlink:href="#linear-gradient-3"/><mask id="mask-3" x="37.69" y="20.99" width="39.96" height="26.64" maskUnits="userSpaceOnUse"><g class="cls-1"><path class="cls-2" d="M37.69,34.31C37.69,27,46.63,21,57.67,21s20,6,20,13.32-9,13.32-20,13.32S37.69,41.67,37.69,34.31Z"/></g></mask><filter id="luminosity-noclip-3" x="37.69" y="20.99" width="39.96" height="26.64" filterUnits="userSpaceOnUse" color-interpolation-filters="sRGB"><feFlood flood-color="#fff" result="bg"/><feBlend in="SourceGraphic" in2="bg"/></filter><linearGradient id="linear-gradient-5" x1="-231.8" y1="-93.09" x2="-231.3" y2="-93.09" gradientTransform="translate(-189.51 -58.78) rotate(180) scale(1.01 1)" gradientUnits="userSpaceOnUse"><stop offset="0" stop-color="#fff"/><stop offset="1" stop-color="#fff"/></linearGradient><radialGradient id="Degradado_sin_nombre_16" cx="57.81" cy="46.75" r="27.54" gradientUnits="userSpaceOnUse"><stop offset="0.85" stop-color="#41abdb"/><stop offset="0.88" stop-color="#40a9d8" stop-opacity="0.99"/><stop offset="0.9" stop-color="#3da1ce" stop-opacity="0.96"/><stop offset="0.91" stop-color="#3893bd" stop-opacity="0.92"/><stop offset="0.93" stop-color="#3181a5" stop-opacity="0.85"/><stop offset="0.95" stop-color="#286986" stop-opacity="0.77"/><stop offset="0.97" stop-color="#1d4b60" stop-opacity="0.66"/><stop offset="0.98" stop-color="#102934" stop-opacity="0.54"/><stop offset="1" stop-color="#010102" stop-opacity="0.4"/><stop offset="1" stop-opacity="0.4"/></radialGradient><radialGradient id="Degradado_sin_nombre_14" cx="57.81" cy="46.75" r="27.54" gradientUnits="userSpaceOnUse"><stop offset="0.85" stop-color="#ebebeb"/><stop offset="0.88" stop-color="#e8e8e8" stop-opacity="0.99"/><stop offset="0.9" stop-color="#dedede" stop-opacity="0.97"/><stop offset="0.91" stop-color="#cdcdcd" stop-opacity="0.92"/><stop offset="0.93" stop-color="#b5b5b5" stop-opacity="0.86"/><stop offset="0.95" stop-color="#969696" stop-opacity="0.78"/><stop offset="0.96" stop-color="#707070" stop-opacity="0.69"/><stop offset="0.98" stop-color="#444" stop-opacity="0.57"/><stop offset="1" stop-color="#111" stop-opacity="0.44"/><stop offset="1" stop-opacity="0.4"/></radialGradient><radialGradient id="Degradado_sin_nombre_13" cx="57.81" cy="46.75" r="27.54" gradientUnits="userSpaceOnUse"><stop offset="0.85" stop-color="#41abdb"/><stop offset="0.88" stop-color="#40a9d8" stop-opacity="0.99"/><stop offset="0.9" stop-color="#3da1ce" stop-opacity="0.96"/><stop offset="0.92" stop-color="#3893bd" stop-opacity="0.92"/><stop offset="0.93" stop-color="#3181a5" stop-opacity="0.85"/><stop offset="0.95" stop-color="#286986" stop-opacity="0.77"/><stop offset="0.97" stop-color="#1d4b60" stop-opacity="0.66"/><stop offset="0.98" stop-color="#102934" stop-opacity="0.54"/><stop offset="1" stop-color="#010102" stop-opacity="0.4"/><stop offset="1" stop-opacity="0.4"/></radialGradient><linearGradient id="linear-gradient-6" x1="43.25" y1="59.6" x2="43.25" y2="75.7" gradientUnits="userSpaceOnUse"><stop offset="0.01" stop-color="#41abdb"/><stop offset="0.14" stop-color="#45addc"/><stop offset="0.28" stop-color="#52b3de"/><stop offset="0.43" stop-color="#68bce2"/><stop offset="0.59" stop-color="#86c9e8"/><stop offset="0.74" stop-color="#acdaef"/><stop offset="0.89" stop-color="#dbeff8"/><stop offset="1" stop-color="#fff"/></linearGradient><linearGradient id="linear-gradient-7" x1="57.78" y1="59.6" x2="57.78" y2="75.7" gradientUnits="userSpaceOnUse"><stop offset="0.01" stop-color="#ebebeb"/><stop offset="0.45" stop-color="#efefef"/><stop offset="0.92" stop-color="#fcfcfc"/><stop offset="1" stop-color="#fff"/></linearGradient><linearGradient id="linear-gradient-8" x1="72.41" y1="59.6" x2="72.41" y2="75.69" xlink:href="#linear-gradient-6"/><linearGradient id="linear-gradient-9" x1="72.83" y1="51.31" x2="72.83" y2="22.77" gradientUnits="userSpaceOnUse"><stop offset="0.01" stop-color="#41abdb"/><stop offset="0.14" stop-color="#53b3de"/><stop offset="0.4" stop-color="#82c8e7"/><stop offset="0.77" stop-color="#cde9f6"/><stop offset="1" stop-color="#fff"/></linearGradient><linearGradient id="linear-gradient-10" x1="42.82" y1="51.31" x2="42.82" y2="22.77" xlink:href="#linear-gradient-9"/><linearGradient id="linear-gradient-11" x1="57.78" y1="51.31" x2="57.78" y2="22.77" gradientUnits="userSpaceOnUse"><stop offset="0.01" stop-color="#ebebeb"/><stop offset="0.91" stop-color="#fdfdfd"/><stop offset="1" stop-color="#fff"/></linearGradient></defs><title>shutterstock_1027459333 [Convertido]</title><g id="Flag_pin_icon" data-name="Flag pin icon"><path class="cls-4" d="M89.8,47.21A32.13,32.13,0,1,0,44.19,76.38l14,23.27,13-23.27A32.13,32.13,0,0,0,89.8,47.21Z"/><path class="cls-5" d="M58.17,100.86l-14.4-24a32.74,32.74,0,1,1,27.81,0Zm-.5-85.18A31.53,31.53,0,0,0,44.45,75.84l.17.07.09.16L58.13,98.44,70.71,75.91l.18-.08A31.53,31.53,0,0,0,57.67,15.68Z"/><path class="cls-6" d="M57.67,19.17A28.34,28.34,0,1,0,86,47.51,28.37,28.37,0,0,0,57.67,19.17Zm27,34.4a27.7,27.7,0,1,1,.67-6.06A28.13,28.13,0,0,1,84.69,53.57Z"/><g class="cls-7"><g class="cls-7"><path class="cls-8" d="M37.69,34.31C37.69,27,46.63,21,57.67,21s20,6,20,13.32-9,13.32-20,13.32S37.69,41.67,37.69,34.31Z"/></g></g><path class="cls-9" d="M30.27,46.75a27.54,27.54,0,0,0,18.36,26V20.79A27.54,27.54,0,0,0,30.27,46.75Z"/><path class="cls-10" d="M57.81,19.21a27.36,27.36,0,0,0-9.18,1.58V72.72a27.61,27.61,0,0,0,18.3,0v-52A27.3,27.3,0,0,0,57.81,19.21Z"/><path class="cls-11" d="M85.35,46.75a27.54,27.54,0,0,0-18.42-26v52A27.55,27.55,0,0,0,85.35,46.75Z"/><path class="cls-12" d="M37.86,59.83a25.61,25.61,0,0,0,10.77,9v-9Z"/><path class="cls-13" d="M48.63,59.83v9l.14.06a22.76,22.76,0,0,0,18.16,0v-9.1Z"/><path class="cls-14" d="M66.93,59.83v9.1h0a25.55,25.55,0,0,0,10.93-9.09Z"/><path class="cls-15" d="M78.6,37.69C77.8,32,73.26,27,67,24.49h0V50.56h0c3.56-.69,6.55-1.87,8.62-3.72a9.34,9.34,0,0,0,3.15-7.33A12.28,12.28,0,0,0,78.6,37.69Z"/><path class="cls-16" d="M37.15,37.69A12.29,12.29,0,0,0,37,39.51a9.37,9.37,0,0,0,3.15,7.33,17.77,17.77,0,0,0,8.47,3.68v-26C42.41,27.08,38,32,37.15,37.69Z"/><path class="cls-17" d="M57.87,22.77a24.73,24.73,0,0,0-9.1,1.72l-.14.06v26l.14,0a48.75,48.75,0,0,0,9.1.76,49.2,49.2,0,0,0,9.06-.75V24.48A24.51,24.51,0,0,0,57.87,22.77Z"/><path class="cls-18" d="M63,42.35a.05.05,0,0,0,0,.07,7.19,7.19,0,0,1,.85,5.79,5.8,5.8,0,0,1-4.5,4.07c-1.59.21-2,.6-2,.62a0,0,0,0,0,0,.07.06.06,0,0,0,.08,0,3.62,3.62,0,0,1,1.94-.58,5.93,5.93,0,0,0,4.58-4.16,7.28,7.28,0,0,0-.86-5.86S63,42.33,63,42.35Z"/><path class="cls-19" d="M59.45,52.49c.14.75,1.94.74,1.94.74A2.43,2.43,0,0,0,59.45,52.49Zm.64-.24c.25.73,2,.42,2,.42A2.43,2.43,0,0,0,60.09,52.25Zm1-.52c.38.66,2.07.06,2.07.06A2.4,2.4,0,0,0,61.08,51.73Zm.71-.44c.54.55,2-.47,2-.47A2.43,2.43,0,0,0,61.79,51.29Zm.77-.72c.42.28,1.45-.71,1.45-.71A2.22,2.22,0,0,0,62.56,50.57Zm.86-1.11c.32.39,1.58-.27,1.58-.27A2.2,2.2,0,0,0,63.42,49.46Zm1.41-1.56c-1,.46-1.2,1.13-1.2,1.13C64.23,49.2,64.83,47.9,64.83,47.9ZM64,47.82c.6.16,1.2-1.14,1.2-1.14C64.19,47.15,64,47.82,64,47.82Zm.72-4a2,2,0,0,0-.7,1.22C64.49,45.09,64.76,43.87,64.76,43.87Zm-1-2.23a2.51,2.51,0,0,0-.14,1.83C64.14,43.22,63.77,41.64,63.77,41.64Zm-.55-.34a2,2,0,0,0,.05,1.41C63.63,42.49,63.22,41.3,63.22,41.3ZM63,42.37c.2-.38-.81-1.26-.81-1.26A2.21,2.21,0,0,0,63,42.37Zm1.53.18A2.09,2.09,0,0,0,64,44.34C64.68,44.15,64.52,42.55,64.52,42.55ZM64.17,47c.78-.11.81-1.88.81-1.88A2.32,2.32,0,0,0,64.17,47Zm-3.6,3.43s-1.32,1.23-.9,1.87A2.43,2.43,0,0,0,60.57,50.41Zm.11,1.51a2.41,2.41,0,0,0,.52-2S60.14,51.37,60.68,51.92Zm1.18-2.47s-.8,1.4-.26,1.82A2.1,2.1,0,0,0,61.86,49.45Zm.86.75s.36-.63-.22-1.89C62.5,48.31,62.07,49.8,62.72,50.2ZM63,47.63s-.48,1.76.09,2A2.82,2.82,0,0,0,63,47.63Zm.88.25a1.79,1.79,0,0,0-.83-1S63.57,48,63.91,47.88ZM63,45.37s.22,1.8,1,1.77A2.23,2.23,0,0,0,63,45.37Zm.78-1.4a2.57,2.57,0,0,0-1.44-1.13S63.22,44.19,63.75,44ZM63.22,43a2.56,2.56,0,0,0-1.37-1.25S62.68,43.21,63.22,43Zm.57,1.64s-.25-.73-1.51-1.09C62.28,43.57,63.13,44.94,63.79,44.66ZM63,44.42s.36,1.73,1.15,1.69A2.33,2.33,0,0,0,63,44.42Z"/><path class="cls-18" d="M52.78,42.35a0,0,0,0,1,0,.07,7.19,7.19,0,0,0-.85,5.79,5.82,5.82,0,0,0,4.5,4.07c1.59.21,2,.6,2,.62a0,0,0,1,1-.07.07,3.73,3.73,0,0,0-1.94-.58,5.94,5.94,0,0,1-4.59-4.16,7.28,7.28,0,0,1,.87-5.86A0,0,0,0,1,52.78,42.35Z"/><path class="cls-19" d="M54.38,53.23s1.8,0,1.93-.74A2.41,2.41,0,0,0,54.38,53.23Zm1.29-1a2.43,2.43,0,0,0-2,.42S55.42,53,55.67,52.25Zm-1-.52a2.4,2.4,0,0,0-2.07.06S54.31,52.39,54.68,51.73ZM54,51.29a2.41,2.41,0,0,0-2-.47S53.43,51.84,54,51.29Zm-.77-.72a2.21,2.21,0,0,0-1.44-.71S52.78,50.85,53.2,50.57Zm-.85-1.11a2.24,2.24,0,0,0-1.59-.27S52,49.85,52.35,49.46ZM52.13,49s-.14-.67-1.2-1.13C50.93,47.9,51.53,49.2,52.13,49Zm-.41-1.21s-.14-.67-1.2-1.14C50.52,46.68,51.12,48,51.72,47.82Zm0-2.73a1.94,1.94,0,0,0-.7-1.22S51.27,45.09,51.7,45.09Zm.44-1.62A2.55,2.55,0,0,0,52,41.64S51.62,43.22,52.14,43.47Zm.4-2.17s-.41,1.19,0,1.41A2,2,0,0,0,52.54,41.3Zm1.05-.19s-1,.88-.82,1.26A2.24,2.24,0,0,0,53.59,41.11Zm-1.81,3.23a2.12,2.12,0,0,0-.54-1.79S51.08,44.15,51.78,44.34ZM51.59,47a2.32,2.32,0,0,0-.81-1.88S50.81,46.87,51.59,47Zm4.5,5.3c.42-.64-.9-1.87-.9-1.87A2.43,2.43,0,0,0,56.09,52.28Zm-1.53-2.36a2.39,2.39,0,0,0,.53,2C55.62,51.37,54.56,49.92,54.56,49.92Zm-.39,1.35c.53-.42-.27-1.82-.27-1.82A2.08,2.08,0,0,0,54.17,51.27ZM53.05,50.2c.65-.4.21-1.89.21-1.89C52.68,49.57,53.05,50.2,53.05,50.2Zm-.32-2.57a2.85,2.85,0,0,0-.08,2C53.21,49.39,52.73,47.63,52.73,47.63Zm-.88.25c.35.16.84-1,.84-1A1.78,1.78,0,0,0,51.85,47.88Zm-.07-.74c.79,0,1-1.77,1-1.77A2.24,2.24,0,0,0,51.78,47.14Zm1.67-4.3A2.52,2.52,0,0,0,52,44C52.55,44.19,53.45,42.84,53.45,42.84Zm-.91.18c.54.19,1.37-1.25,1.37-1.25A2.61,2.61,0,0,0,52.54,43ZM52,44.66c.66.28,1.52-1.09,1.52-1.09A2.13,2.13,0,0,0,52,44.66Zm-.33,1.45c.79,0,1.15-1.69,1.15-1.69A2.33,2.33,0,0,0,51.64,46.11Z"/><polygon class="cls-20" points="60 43.46 60.62 42.76 60.92 43.12 63.19 41.03 60.92 43.39 60.63 43.13 60.14 43.65 60 43.46"/><path class="cls-20" d="M54.75,48.87c0,.24-.42.68-.42.68h0l.38.34.45-.75.12-.13-.33-.34Z"/><polygon class="cls-18" points="52.5 51.48 53.3 52.19 54.7 49.9 54.32 49.56 52.5 51.48"/><polygon class="cls-18" points="60 43.46 54.94 48.67 55.27 49.02 60.19 43.69 60 43.46"/><path class="cls-21" d="M55.31,50.89a1,1,0,0,0-.47.19.92.92,0,0,0-.33.53c0,.16.18.36.18.36s-.12.12,0,.21.22-.1.22-.1l.72-.71s.37.18.4-.11S55.59,50.89,55.31,50.89Zm-.52.84s-.28-.16,0-.43.45-.35.62-.17Z"/><path class="cls-22" d="M55.61,51s2-1.93,2.63-2.51,2.1-1.84,3-1.89a17.25,17.25,0,0,0-2.79,2l-2.71,2.58S55.6,51.19,55.61,51Z"/><polygon class="cls-20" points="55.69 43.46 55.07 42.76 54.77 43.12 52.5 41.03 54.77 43.39 55.06 43.13 55.55 43.65 55.69 43.46"/><path class="cls-20" d="M60.94,48.87c0,.24.42.68.42.68h0L61,49.9l-.45-.75L60.42,49l.33-.34Z"/><polygon class="cls-18" points="63.19 51.48 62.39 52.19 60.99 49.9 61.37 49.56 63.19 51.48"/><polygon class="cls-18" points="55.69 43.46 60.75 48.67 60.42 49.02 55.5 43.69 55.69 43.46"/><path class="cls-21" d="M59.69,51.26c0,.29.4.11.4.11l.72.71s.13.19.22.1S61,52,61,52s.21-.2.18-.36a.91.91,0,0,0-.8-.72C60.1,50.89,59.66,51,59.69,51.26Zm.59-.13c.17-.18.43,0,.62.17s0,.43,0,.43Z"/><path class="cls-22" d="M60.08,51s-2-1.93-2.63-2.51-2.11-1.84-3-1.89a17.73,17.73,0,0,1,2.79,2l2.71,2.58S60.09,51.19,60.08,51Z"/><path class="cls-23" d="M55.59,42.89l3.29.07s.74.31.09.84c0,0,.63,1.23,1,1.8a3.52,3.52,0,0,1,.27,2.28c-.2.32-.13.22-1.69.34a16,16,0,0,1-2.64.19.75.75,0,0,1-.38-1c.19-.43.31-.55.89-.53a5.65,5.65,0,0,0-.74-1.44,2.61,2.61,0,0,1-.54-2.21C55.3,42.79,55.59,42.89,55.59,42.89Z"/><path class="cls-24" d="M57.24,41.16s-.31.58-.16.86a3,3,0,0,0,1.29.94,10.59,10.59,0,0,1,1.25.41,3.46,3.46,0,0,1,1.05,1.53c.2.84.54,2.74-.64,4a1.94,1.94,0,0,0,.76-.82,8,8,0,0,1-3.69,4.49s.55.15,2.47-1.65a6.32,6.32,0,0,0-1.23,2.61,9.66,9.66,0,0,1,1.18-1.84c.75-.92,2.38-3.58,2-5.89a6.73,6.73,0,0,0-3.58-4.56.68.68,0,0,0,.09-.63.61.61,0,0,0-.88-.12A.48.48,0,0,0,57.24,41.16Z"/><polygon class="cls-25" points="57.12 41.03 56.89 41.19 57.23 41.28 57.3 41.15 57.12 41.03"/><path class="cls-26" d="M57.16,42.11s.15-.22.47,0,.73.49.73.67-.09.17-.24.11a3.58,3.58,0,0,1-.65-.35A.81.81,0,0,1,57.16,42.11Z"/><path class="cls-27" d="M57.56,40.79s0,.05-.07.05-.08,0-.08-.05,0-.06.08-.06S57.56,40.75,57.56,40.79Z"/></g></svg>