<svg xmlns="http://www.w3.org/2000/svg" xmlns:xlink="http://www.w3.org/1999/xlink" viewBox="0 0 115.33 115.33"><defs><style>.cls-1{mask:url(#mask);}.cls-2,.cls-3{mix-blend-mode:multiply;}.cls-2{fill:url(#linear-gradient);}.cls-3{fill:url(#linear-gradient-2);}.cls-4{fill:#d3d3d3;}.cls-5{fill:url(#linear-gradient-3);}.cls-6{fill:url(#linear-gradient-4);}.cls-7{mask:url(#mask-3);}.cls-8{opacity:0.7;fill:url(#linear-gradient-5);}.cls-9{fill:url(#Degradado_sin_nombre_23);}.cls-10{fill:url(#Degradado_sin_nombre_27);}.cls-11{fill:url(#Degradado_sin_nombre_26);}.cls-12{fill:url(#Degradado_sin_nombre_25);}.cls-13{fill:url(#linear-gradient-6);}.cls-14{fill:url(#linear-gradient-7);}.cls-15{fill:url(#radial-gradient);}.cls-16{fill:url(#linear-gradient-8);}.cls-17{fill:url(#radial-gradient-2);}.cls-18{fill:url(#linear-gradient-9);}.cls-19{fill:url(#linear-gradient-10);}.cls-20{fill:url(#linear-gradient-11);}.cls-21{fill:url(#linear-gradient-12);}.cls-22{fill:url(#linear-gradient-13);}.cls-23{filter:url(#luminosity-noclip);}</style><filter id="luminosity-noclip" x="37.69" y="-8250" width="39.96" height="32766" filterUnits="userSpaceOnUse" color-interpolation-filters="sRGB"><feFlood flood-color="#fff" result="bg"/><feBlend in="SourceGraphic" in2="bg"/></filter><mask id="mask" x="37.69" y="-8250" width="39.96" height="32766" maskUnits="userSpaceOnUse"><g class="cls-23"/></mask><linearGradient id="linear-gradient" x1="-804.2" y1="-94.34" x2="-804.46" y2="-81.02" gradientTransform="translate(-754.52 -58.78) rotate(180) scale(1.01 1)" gradientUnits="userSpaceOnUse"><stop offset="0" stop-color="#080808"/><stop offset="1" stop-color="#bfbfbf"/></linearGradient><linearGradient id="linear-gradient-2" x1="-804.2" y1="-94.34" x2="-804.46" y2="-81.02" gradientTransform="translate(-754.52 -58.78) rotate(180) scale(1.01 1)" gradientUnits="userSpaceOnUse"><stop offset="0"/><stop offset="1" stop-color="#fff"/></linearGradient><linearGradient id="linear-gradient-3" x1="35.91" y1="116.75" x2="67.72" y2="15.03" gradientUnits="userSpaceOnUse"><stop offset="0" stop-color="#85888a"/><stop offset="0.29" stop-color="#f1f2f4"/><stop offset="0.68" stop-color="#fff"/><stop offset="0.73" stop-color="#fafafa"/><stop offset="0.79" stop-color="#ececed"/><stop offset="0.86" stop-color="#d4d5d6"/><stop offset="0.92" stop-color="#b3b5b6"/><stop offset="0.99" stop-color="#898c8e"/><stop offset="1" stop-color="#85888a"/></linearGradient><linearGradient id="linear-gradient-4" x1="20.66" y1="47.51" x2="86.67" y2="47.51" xlink:href="#linear-gradient-3"/><mask id="mask-3" x="37.69" y="20.99" width="39.96" height="26.64" maskUnits="userSpaceOnUse"><g class="cls-1"><path class="cls-2" d="M37.69,34.31C37.69,27,46.63,21,57.67,21s20,6,20,13.32-9,13.32-20,13.32S37.69,41.67,37.69,34.31Z"/></g></mask><filter id="luminosity-noclip-3" x="37.69" y="20.99" width="39.96" height="26.64" filterUnits="userSpaceOnUse" color-interpolation-filters="sRGB"><feFlood flood-color="#fff" result="bg"/><feBlend in="SourceGraphic" in2="bg"/></filter><linearGradient id="linear-gradient-5" x1="-791.27" y1="-93.09" x2="-790.77" y2="-93.09" gradientTransform="translate(-754.52 -58.78) rotate(180) scale(1.01 1)" gradientUnits="userSpaceOnUse"><stop offset="0" stop-color="#fff"/><stop offset="1" stop-color="#fff"/></linearGradient><radialGradient id="Degradado_sin_nombre_23" cx="57.76" cy="47.11" r="27.54" gradientUnits="userSpaceOnUse"><stop offset="0.85" stop-color="#d71524"/><stop offset="0.88" stop-color="#d41523" stop-opacity="0.99"/><stop offset="0.9" stop-color="#ca1422" stop-opacity="0.96"/><stop offset="0.92" stop-color="#b9121f" stop-opacity="0.92"/><stop offset="0.93" stop-color="#a1101b" stop-opacity="0.85"/><stop offset="0.95" stop-color="#820d16" stop-opacity="0.76"/><stop offset="0.97" stop-color="#5c090f" stop-opacity="0.66"/><stop offset="0.98" stop-color="#310508" stop-opacity="0.54"/><stop offset="1" stop-opacity="0.4"/></radialGradient><radialGradient id="Degradado_sin_nombre_27" cx="57.76" cy="47.11" r="27.34" gradientUnits="userSpaceOnUse"><stop offset="0.85" stop-color="#ebebeb"/><stop offset="0.88" stop-color="#e8e8e8" stop-opacity="0.99"/><stop offset="0.9" stop-color="#dedede" stop-opacity="0.97"/><stop offset="0.91" stop-color="#cdcdcd" stop-opacity="0.92"/><stop offset="0.93" stop-color="#b5b5b5" stop-opacity="0.86"/><stop offset="0.95" stop-color="#969696" stop-opacity="0.78"/><stop offset="0.96" stop-color="#707070" stop-opacity="0.69"/><stop offset="0.98" stop-color="#444" stop-opacity="0.57"/><stop offset="1" stop-color="#111" stop-opacity="0.44"/><stop offset="1" stop-opacity="0.4"/></radialGradient><radialGradient id="Degradado_sin_nombre_26" cx="57.76" cy="47.11" r="27.54" gradientUnits="userSpaceOnUse"><stop offset="0.84" stop-color="#07389a"/><stop offset="0.87" stop-color="#073797" stop-opacity="0.99"/><stop offset="0.9" stop-color="#06338d" stop-opacity="0.95"/><stop offset="0.92" stop-color="#062d7d" stop-opacity="0.89"/><stop offset="0.94" stop-color="#052566" stop-opacity="0.8"/><stop offset="0.96" stop-color="#031a48" stop-opacity="0.68"/><stop offset="0.98" stop-color="#020d24" stop-opacity="0.54"/><stop offset="1" stop-opacity="0.4"/></radialGradient><radialGradient id="Degradado_sin_nombre_25" cx="57.76" cy="47.11" r="27.54" gradientUnits="userSpaceOnUse"><stop offset="0.85" stop-color="#ebebeb"/><stop offset="0.87" stop-color="#e8e8e8" stop-opacity="0.99"/><stop offset="0.89" stop-color="#dedede" stop-opacity="0.97"/><stop offset="0.91" stop-color="#cdcdcd" stop-opacity="0.92"/><stop offset="0.93" stop-color="#b5b5b5" stop-opacity="0.86"/><stop offset="0.95" stop-color="#969696" stop-opacity="0.78"/><stop offset="0.96" stop-color="#707070" stop-opacity="0.69"/><stop offset="0.98" stop-color="#444" stop-opacity="0.57"/><stop offset="0.99" stop-color="#111" stop-opacity="0.44"/><stop offset="1" stop-opacity="0.4"/></radialGradient><linearGradient id="linear-gradient-6" x1="46.58" y1="56.2" x2="46.58" y2="71.18" gradientUnits="userSpaceOnUse"><stop offset="0.01" stop-color="#07389a"/><stop offset="0.31" stop-color="#073b9d"/><stop offset="0.55" stop-color="#0545a5"/><stop offset="0.76" stop-color="#0355b3"/><stop offset="0.96" stop-color="#016cc7"/><stop offset="1" stop-color="#0072cc"/></linearGradient><linearGradient id="linear-gradient-7" x1="68.86" y1="56.2" x2="68.86" y2="71.18" gradientUnits="userSpaceOnUse"><stop offset="0.01" stop-color="#ebebeb"/><stop offset="0.48" stop-color="#eee"/><stop offset="0.84" stop-color="#f8f8f8"/><stop offset="1" stop-color="#fff"/></linearGradient><radialGradient id="radial-gradient" cx="57.76" cy="47.1" r="27.54" gradientUnits="userSpaceOnUse"><stop offset="0.85" stop-color="#ebebeb"/><stop offset="0.88" stop-color="#e8e8e8"/><stop offset="0.9" stop-color="#dedede"/><stop offset="0.91" stop-color="#cdcdcd"/><stop offset="0.93" stop-color="#b5b5b5"/><stop offset="0.95" stop-color="#969696"/><stop offset="0.96" stop-color="#707070"/><stop offset="0.98" stop-color="#444"/><stop offset="1" stop-color="#111"/><stop offset="1"/></radialGradient><linearGradient id="linear-gradient-8" x1="68.18" y1="51.62" x2="68.18" y2="23" gradientUnits="userSpaceOnUse"><stop offset="0.01" stop-color="#dd1f0e"/><stop offset="0.12" stop-color="#e03020"/><stop offset="0.33" stop-color="#e65c4f"/><stop offset="0.64" stop-color="#f1a29b"/><stop offset="1" stop-color="#fff"/></linearGradient><radialGradient id="radial-gradient-2" cx="57.76" cy="47.1" r="27.52" xlink:href="#radial-gradient"/><linearGradient id="linear-gradient-9" x1="47.26" y1="51.62" x2="47.26" y2="23" gradientUnits="userSpaceOnUse"><stop offset="0.05" stop-color="#f7f7f7"/><stop offset="1" stop-color="#fff"/></linearGradient><linearGradient id="linear-gradient-10" x1="48.84" y1="51.62" x2="48.84" y2="22.99" gradientUnits="userSpaceOnUse"><stop offset="0.01" stop-color="#07389a"/><stop offset="0.05" stop-color="#06419f"/><stop offset="0.12" stop-color="#0259ae"/><stop offset="0.15" stop-color="#0065b5"/></linearGradient><linearGradient id="linear-gradient-11" x1="66.6" y1="51.62" x2="66.6" y2="22.99" gradientUnits="userSpaceOnUse"><stop offset="0.01" stop-color="#ebebeb"/><stop offset="0.09" stop-color="#f4f4f4"/><stop offset="0.15" stop-color="#fff"/></linearGradient><linearGradient id="linear-gradient-12" x1="45.5" y1="15.75" x2="45.5" y2="49.23" gradientUnits="userSpaceOnUse"><stop offset="0" stop-color="#fff"/><stop offset="1" stop-color="#07389a"/></linearGradient><linearGradient id="linear-gradient-13" x1="69.39" y1="65.82" x2="73.36" y2="54.45" gradientUnits="userSpaceOnUse"><stop offset="0" stop-color="#f9d6d6"/><stop offset="0.08" stop-color="#f4bbbd"/><stop offset="0.25" stop-color="#eb898f"/><stop offset="0.42" stop-color="#e45f68"/><stop offset="0.58" stop-color="#de3f4b"/><stop offset="0.73" stop-color="#da2835"/><stop offset="0.87" stop-color="#d81a28"/><stop offset="1" stop-color="#d71524"/></linearGradient></defs><title>shutterstock_1027459333 [Convertido]</title><g id="Flag_pin_icon" data-name="Flag pin icon"><path class="cls-4" d="M89.8,47.21A32.13,32.13,0,1,0,44.19,76.38l14,23.27,13-23.27A32.13,32.13,0,0,0,89.8,47.21Z"/><path class="cls-5" d="M58.17,100.86l-14.4-24a32.74,32.74,0,1,1,27.81,0Zm-.5-85.18A31.53,31.53,0,0,0,44.45,75.84l.17.07.09.16L58.13,98.44,70.71,75.91l.18-.08A31.53,31.53,0,0,0,57.67,15.68Z"/><path class="cls-6" d="M57.67,19.17A28.34,28.34,0,1,0,86,47.51,28.37,28.37,0,0,0,57.67,19.17Zm27,34.4a27.7,27.7,0,1,1,.67-6.06A28.13,28.13,0,0,1,84.69,53.57Z"/><g class="cls-7"><g class="cls-7"><path class="cls-8" d="M37.69,34.31C37.69,27,46.63,21,57.67,21s20,6,20,13.32-9,13.32-20,13.32S37.69,41.67,37.69,34.31Z"/></g></g><path class="cls-9" d="M57.77,23a24.54,24.54,0,0,1,9.11,1.72C73.21,27.24,77.75,32.25,78.56,38a12.32,12.32,0,0,1,.13,1.83,9.36,9.36,0,0,1-3.15,7.34H85.3v0A27.54,27.54,0,0,0,57.76,19.57h-.09V23Z"/><path class="cls-10" d="M36.85,39.79A13.83,13.83,0,0,1,37,38c.81-5.71,5.35-10.72,11.66-13.24a24.77,24.77,0,0,1,9-1.72V19.57A27.54,27.54,0,0,0,30.22,47.1v0H40A9.36,9.36,0,0,1,36.85,39.79Z"/><path class="cls-11" d="M30.22,47.13A27.54,27.54,0,0,0,57.67,74.64V47.13Z"/><path class="cls-12" d="M57.67,47.13V74.64h.09A27.54,27.54,0,0,0,85.3,47.13Z"/><path class="cls-13" d="M48.64,69.28a23,23,0,0,0,9,1.9v-15H35.49A25.7,25.7,0,0,0,48.64,69.28Z"/><path class="cls-14" d="M57.77,71.18a23.13,23.13,0,0,0,9.11-1.89A25.72,25.72,0,0,0,80.05,56.2H57.67v15Z"/><path class="cls-15" d="M78.69,39.79A12.32,12.32,0,0,0,78.56,38c-.81-5.71-5.35-10.72-11.68-13.24A24.54,24.54,0,0,0,57.77,23h-.1V47.13H75.54A9.36,9.36,0,0,0,78.69,39.79Z"/><path class="cls-16" d="M78.69,39.79A12.32,12.32,0,0,0,78.56,38c-.81-5.71-5.35-10.72-11.68-13.24A24.54,24.54,0,0,0,57.77,23h-.1V47.13H75.54A9.36,9.36,0,0,0,78.69,39.79Z"/><path class="cls-17" d="M57.67,23a24.77,24.77,0,0,0-9,1.72C42.33,27.24,37.79,32.25,37,38a13.83,13.83,0,0,0-.13,1.83A9.36,9.36,0,0,0,40,47.13H57.67Z"/><path class="cls-18" d="M57.67,23a24.77,24.77,0,0,0-9,1.72C42.33,27.24,37.79,32.25,37,38a13.83,13.83,0,0,0-.13,1.83A9.36,9.36,0,0,0,40,47.13H57.67Z"/><path class="cls-19" d="M40,47.13a17.87,17.87,0,0,0,8.63,3.73,49.71,49.71,0,0,0,9,.76V47.13Z"/><path class="cls-20" d="M66.88,50.87a18.08,18.08,0,0,0,8.66-3.74H57.67v4.49h.1A49.68,49.68,0,0,0,66.88,50.87Z"/><polygon class="cls-21" points="45.5 26.4 47.02 31.05 51.91 31.05 47.95 33.93 49.46 38.58 45.5 35.71 41.55 38.58 43.06 33.93 39.1 31.05 43.99 31.05 45.5 26.4"/><polygon class="cls-22" points="72.19 52.9 73.7 57.55 78.6 57.55 74.64 60.42 76.15 65.08 72.19 62.2 68.23 65.08 69.74 60.42 65.78 57.55 70.68 57.55 72.19 52.9"/></g></svg>