<svg xmlns="http://www.w3.org/2000/svg" width="27" height="27" viewBox="0 0 27 27">
  <g id="Grupo_8898" data-name="Grupo 8898" transform="translate(-289 -35)">
    <circle id="Elipse_440" data-name="Elipse 440" cx="13.5" cy="13.5" r="13.5" transform="translate(289 35)" fill="#3f9c35"/>
    <path id="_" data-name="" d="M16.152-13.908,5.214-2.97,1.347-6.837a.469.469,0,0,0-.663,0L.243-6.4a.469.469,0,0,0,0,.663l4.64,4.64a.469.469,0,0,0,.663,0L17.257-12.8a.469.469,0,0,0,0-.663l-.442-.442A.469.469,0,0,0,16.152-13.908Z" transform="translate(294 56)" fill="#fafafa" stroke="rgba(0,0,0,0)" stroke-width="1"/>
  </g>
</svg>
