<svg xmlns="http://www.w3.org/2000/svg" width="27" height="27" viewBox="0 0 27 27">
  <g id="Grupo_8915" data-name="Grupo 8915" transform="translate(-289 -35)">
    <circle id="Elipse_440" data-name="Elipse 440" cx="13.5" cy="13.5" r="13.5" transform="translate(289 35)" fill="#e98300"/>
    <path id="_" data-name="" d="M16.336-14.609H16a.4.4,0,0,0-.4.4v3.673A8.23,8.23,0,0,0,8.5-14.609,8.235,8.235,0,0,0,.276-6.79a.4.4,0,0,0,.4.415h.333a.4.4,0,0,0,.4-.375,7.1,7.1,0,0,1,7.1-6.73,7.1,7.1,0,0,1,6.318,3.852H11.023a.4.4,0,0,0-.4.4V-8.9a.4.4,0,0,0,.4.4h5.312a.4.4,0,0,0,.4-.4v-5.312A.4.4,0,0,0,16.336-14.609Zm-.01,8.234h-.333A.4.4,0,0,0,15.6-6,7.1,7.1,0,0,1,8.5.73,7.109,7.109,0,0,1,2.181-3.121h3.8a.4.4,0,0,0,.4-.4v-.332a.4.4,0,0,0-.4-.4H.664a.4.4,0,0,0-.4.4V1.461a.4.4,0,0,0,.4.4H1a.4.4,0,0,0,.4-.4V-2.212A8.23,8.23,0,0,0,8.5,1.859,8.235,8.235,0,0,0,16.724-5.96.4.4,0,0,0,16.326-6.375Z" transform="translate(294 55)" fill="#fafafa" stroke="rgba(0,0,0,0)" stroke-width="1"/>
  </g>
</svg>
